<svg width="332" height="332" viewBox="0 0 332 332" fill="none" xmlns="http://www.w3.org/2000/svg">
<path d="M304.935 91.3133C303.335 78.8567 300.214 66.9113 293.647 56.0284C281.536 35.8096 259.624 23.592 237.466 17.3968C218.874 12.2044 198.848 10.7037 180.303 16.0688C159.944 21.9585 142.86 35.5174 124.527 46.148C111.106 53.8165 97.0958 60.4021 82.6282 65.8423C70.9551 70.311 56.1213 72.8143 46.5265 81.3002C40.6541 86.5424 35.447 92.4853 31.0221 98.9958C13.1074 125.098 7.30402 158.444 10.0397 189.572C11.9719 211.258 17.9347 233.203 31.2877 250.381C50.059 274.491 82.2829 286.37 112.687 283.375C147.215 279.976 179.917 259.345 214.233 264.299C231.318 266.762 247.665 275.54 264.85 273.907C281.788 272.3 296.283 260.627 306.502 247.048C314.696 236.138 320.148 222.945 320.652 209.2C321.203 194.333 314.47 180.774 311.091 166.578C305.214 141.764 308.156 116.379 304.935 91.3133Z" fill="#92E3A9"/>
<path opacity="0.7" d="M304.935 91.3133C303.335 78.8567 300.214 66.9113 293.647 56.0284C281.536 35.8096 259.624 23.592 237.466 17.3968C218.874 12.2044 198.848 10.7037 180.303 16.0688C159.944 21.9585 142.86 35.5174 124.527 46.148C111.106 53.8165 97.0958 60.4021 82.6282 65.8423C70.9551 70.311 56.1213 72.8143 46.5265 81.3002C40.6541 86.5424 35.447 92.4853 31.0221 98.9958C13.1074 125.098 7.30402 158.444 10.0397 189.572C11.9719 211.258 17.9347 233.203 31.2877 250.381C50.059 274.491 82.2829 286.37 112.687 283.375C147.215 279.976 179.917 259.345 214.233 264.299C231.318 266.762 247.665 275.54 264.85 273.907C281.788 272.3 296.283 260.627 306.502 247.048C314.696 236.138 320.148 222.945 320.652 209.2C321.203 194.333 314.47 180.774 311.091 166.578C305.214 141.764 308.156 116.379 304.935 91.3133Z" fill="white"/>
<path d="M222.394 209.319H319.298V205.667H222.394V209.319Z" stroke="#263238" stroke-linecap="round" stroke-linejoin="round"/>
<path d="M226.889 308.096H314.802V209.426H226.889V308.096Z" stroke="#263238" stroke-linecap="round" stroke-linejoin="round"/>
<path d="M230.056 235.428H311.748V214.021H230.056V235.428Z" stroke="#263238" stroke-linecap="round" stroke-linejoin="round"/>
<path d="M266.955 226.69H275.122V222.745H266.955V226.69Z" fill="#263238" stroke="#263238" stroke-linecap="round" stroke-linejoin="round"/>
<path d="M230.056 262.473H311.748V241.065H230.056V262.473Z" stroke="#263238" stroke-linecap="round" stroke-linejoin="round"/>
<path d="M266.955 253.741H275.122V249.797H266.955V253.741Z" fill="#263238" stroke="#263238" stroke-linecap="round" stroke-linejoin="round"/>
<path d="M230.056 289.637H311.748V268.229H230.056V289.637Z" stroke="#263238" stroke-linecap="round" stroke-linejoin="round"/>
<path d="M266.955 280.905H275.122V276.961H266.955V280.905Z" fill="#263238" stroke="#263238" stroke-linecap="round" stroke-linejoin="round"/>
<path d="M274.896 162.501C275.885 162.932 278.309 162.879 278.309 162.879C278.309 162.879 277.791 161.292 277.745 161.193C277.213 160.084 275.534 158.244 274.166 158.43C273.938 158.466 273.72 158.549 273.527 158.675C273.333 158.801 273.168 158.966 273.043 159.159C272.918 159.353 272.835 159.571 272.799 159.799C272.764 160.027 272.777 160.26 272.838 160.482C273.015 160.947 273.291 161.368 273.646 161.716C274.001 162.065 274.428 162.332 274.896 162.501Z" fill="#263238"/>
<path d="M299.378 163.032C299.378 163.032 299.816 161.425 299.829 161.319C300.002 160.097 299.61 157.64 298.368 157.036C298.158 156.942 297.931 156.893 297.701 156.893C297.471 156.893 297.243 156.942 297.033 157.036C296.823 157.13 296.635 157.267 296.482 157.439C296.329 157.611 296.214 157.813 296.144 158.032C296.034 158.516 296.029 159.018 296.131 159.504C296.233 159.99 296.439 160.449 296.735 160.847C297.326 161.737 299.371 163.032 299.378 163.032Z" fill="#263238"/>
<path d="M306.609 154.254C305.234 154.108 303.601 155.987 303.103 157.109C303.056 157.209 302.558 158.809 302.585 158.809C302.326 159.101 302.047 159.42 301.755 159.778C301.217 160.442 300.619 161.186 300.022 162.049C299.366 162.967 298.765 163.922 298.222 164.911C297.605 166.017 297.089 167.177 296.682 168.377C296.682 168.377 296.682 168.377 296.682 168.417C296.682 168.012 296.682 166.883 296.682 166.797C296.523 165.575 295.5 163.304 294.139 163.052C293.912 163.017 293.681 163.03 293.46 163.091C293.239 163.152 293.033 163.258 292.856 163.403C292.679 163.548 292.534 163.729 292.431 163.934C292.329 164.139 292.27 164.363 292.26 164.592C292.282 165.089 292.413 165.575 292.642 166.017C292.871 166.458 293.194 166.845 293.588 167.149C294.365 167.813 296.509 168.51 296.682 168.563C296.299 169.791 295.996 171.042 295.772 172.308C295.646 173.052 295.533 173.795 295.434 174.546C295.434 174.2 295.434 173.882 295.434 173.842C295.274 172.62 294.252 170.349 292.897 170.103C292.67 170.067 292.439 170.078 292.217 170.138C291.995 170.197 291.788 170.302 291.61 170.447C291.432 170.592 291.287 170.773 291.183 170.978C291.08 171.183 291.022 171.408 291.011 171.637C291.033 172.134 291.164 172.621 291.393 173.062C291.622 173.504 291.945 173.89 292.339 174.194C293.263 174.806 294.275 175.271 295.341 175.575C295.307 175.867 295.268 176.153 295.234 176.445C295.068 177.826 294.909 179.214 294.71 180.561C294.643 181.04 294.557 181.504 294.471 181.976C294.471 181.664 294.471 181.398 294.471 181.358C294.311 180.137 293.289 177.872 291.928 177.62C291.702 177.584 291.47 177.597 291.249 177.656C291.028 177.716 290.822 177.822 290.645 177.967C290.468 178.111 290.323 178.292 290.22 178.497C290.117 178.701 290.059 178.925 290.049 179.154C290.071 179.651 290.201 180.137 290.43 180.579C290.66 181.02 290.983 181.406 291.377 181.71C292.273 182.303 293.256 182.751 294.292 183.038C294.192 183.516 294.092 183.994 293.973 184.453C293.88 184.758 293.82 185.063 293.714 185.369C293.608 185.674 293.515 185.98 293.422 186.279C293.216 186.85 293.003 187.441 292.758 187.992C292.612 188.37 292.466 188.735 292.319 189.101C292.392 188.629 292.519 187.699 292.519 187.62C292.504 186.535 292.211 185.472 291.669 184.532C291.681 184.278 291.635 184.024 291.536 183.79C291.436 183.556 291.285 183.347 291.094 183.179C290.902 183.011 290.675 182.889 290.43 182.821C290.185 182.753 289.927 182.741 289.677 182.786C288.349 183.144 287.499 185.482 287.432 186.717C287.432 186.79 287.479 187.58 287.519 188.078C287.446 187.792 287.386 187.507 287.313 187.208C287.173 186.617 287.014 186.033 286.848 185.409C286.762 185.103 286.669 184.798 286.576 184.492C286.483 184.187 286.357 183.875 286.25 183.563C285.992 182.839 285.686 182.122 285.367 181.405C286.445 181.179 287.482 180.789 288.442 180.249C288.855 179.975 289.204 179.614 289.463 179.19C289.722 178.767 289.886 178.292 289.942 177.799C289.949 177.57 289.907 177.342 289.819 177.129C289.731 176.917 289.6 176.726 289.433 176.568C289.266 176.41 289.068 176.289 288.852 176.213C288.635 176.137 288.405 176.107 288.176 176.126C286.802 176.279 285.613 178.463 285.367 179.672C285.367 179.745 285.268 180.635 285.235 181.119C285.035 180.688 284.843 180.263 284.63 179.831C284.019 178.596 283.355 177.368 282.705 176.133C282.506 175.761 282.313 175.382 282.114 175.004C282.3 174.957 284.484 174.453 285.301 173.822C285.715 173.547 286.063 173.186 286.322 172.763C286.581 172.34 286.745 171.865 286.802 171.372C286.808 171.142 286.766 170.914 286.678 170.702C286.59 170.49 286.459 170.299 286.292 170.141C286.126 169.983 285.927 169.862 285.711 169.786C285.494 169.709 285.264 169.68 285.035 169.698C283.668 169.851 282.472 172.036 282.227 173.244C282.227 173.331 282.094 174.605 282.081 174.931C281.649 174.101 281.224 173.271 280.839 172.427C280.321 171.298 279.877 170.136 279.511 168.948C279.597 168.948 281.881 168.41 282.718 167.766C283.132 167.492 283.48 167.13 283.739 166.707C283.999 166.284 284.162 165.809 284.219 165.316C284.225 165.087 284.183 164.858 284.095 164.646C284.007 164.434 283.876 164.243 283.709 164.085C283.543 163.927 283.344 163.806 283.128 163.73C282.911 163.654 282.681 163.624 282.452 163.643C281.085 163.795 279.889 165.98 279.644 167.182C279.644 167.262 279.537 168.238 279.504 168.702H279.431C279.085 167.498 278.849 166.265 278.727 165.017C278.648 164.353 278.614 163.689 278.595 163.025C279.71 162.922 280.802 162.649 281.835 162.215C282.276 161.986 282.662 161.664 282.966 161.271C283.27 160.877 283.484 160.422 283.594 159.938C283.625 159.71 283.608 159.479 283.544 159.259C283.479 159.039 283.369 158.835 283.221 158.66C283.072 158.486 282.889 158.344 282.682 158.245C282.475 158.146 282.25 158.091 282.021 158.085C280.64 158.085 279.219 160.124 278.84 161.299C278.84 161.359 278.681 162.029 278.588 162.521C278.588 162.235 278.588 161.936 278.588 161.657C278.588 160.608 278.654 159.665 278.721 158.809C278.761 158.331 278.807 157.893 278.854 157.481C279.791 156.877 280.631 156.134 281.344 155.276C281.629 154.87 281.823 154.407 281.911 153.918C282 153.43 281.98 152.928 281.855 152.448C281.777 152.232 281.655 152.035 281.496 151.87C281.338 151.704 281.146 151.574 280.934 151.487C280.722 151.4 280.494 151.358 280.265 151.365C280.036 151.371 279.811 151.426 279.604 151.525C278.382 152.189 278.057 154.626 278.276 155.841C278.276 155.947 278.754 157.561 278.774 157.547C278.721 157.939 278.668 158.357 278.614 158.815C278.535 159.659 278.448 160.615 278.422 161.664C278.384 162.793 278.41 163.924 278.502 165.05C278.599 166.31 278.808 167.559 279.126 168.782V168.829C278.907 168.483 278.269 167.554 278.209 167.501C277.406 166.571 275.294 165.243 274.026 165.781C273.818 165.876 273.633 166.014 273.481 166.186C273.33 166.358 273.217 166.56 273.148 166.778C273.08 166.997 273.059 167.227 273.085 167.455C273.112 167.682 273.186 167.901 273.302 168.098C273.592 168.502 273.966 168.837 274.398 169.081C274.831 169.325 275.311 169.473 275.806 169.513C276.835 169.659 278.993 169.034 279.166 168.981C279.528 170.22 279.972 171.433 280.494 172.613C280.792 173.277 281.111 173.981 281.443 174.665L281.038 174.087C280.228 173.151 278.123 171.83 276.855 172.368C276.646 172.462 276.46 172.6 276.308 172.772C276.156 172.944 276.042 173.146 275.974 173.364C275.906 173.583 275.884 173.814 275.911 174.041C275.938 174.269 276.013 174.488 276.131 174.685C276.421 175.088 276.795 175.424 277.227 175.668C277.659 175.912 278.139 176.06 278.634 176.099C279.743 176.099 280.844 175.929 281.901 175.595C282.034 175.854 282.16 176.119 282.286 176.378C282.95 177.627 283.541 178.868 284.126 180.103C284.332 180.535 284.517 180.973 284.703 181.431C284.531 181.172 284.378 180.96 284.351 180.927C283.548 179.997 281.436 178.669 280.168 179.207C279.96 179.303 279.774 179.442 279.623 179.614C279.472 179.787 279.358 179.989 279.29 180.208C279.222 180.427 279.2 180.658 279.227 180.886C279.254 181.114 279.328 181.334 279.444 181.531C279.735 181.932 280.11 182.266 280.542 182.509C280.974 182.752 281.454 182.899 281.948 182.939C283.026 182.942 284.099 182.781 285.128 182.461C285.308 182.912 285.487 183.364 285.64 183.789C285.733 184.094 285.852 184.386 285.932 184.698L286.191 185.615C286.33 186.205 286.476 186.81 286.602 187.394C286.689 187.792 286.768 188.178 286.848 188.563C286.649 188.131 286.244 187.281 286.184 187.235C285.52 186.192 283.648 184.579 282.313 184.904C282.093 184.967 281.888 185.076 281.713 185.224C281.537 185.371 281.394 185.553 281.294 185.759C281.193 185.965 281.137 186.19 281.128 186.419C281.119 186.648 281.159 186.876 281.244 187.089C281.47 187.531 281.79 187.918 282.181 188.224C282.572 188.53 283.025 188.748 283.508 188.861C284.628 189.033 285.768 189.033 286.888 188.861C287.021 189.525 287.14 190.13 287.24 190.721C287.466 192.015 287.638 193.177 287.771 194.167H282.333V205.601H296.635V194.147H291.104C291.463 193.35 291.855 192.447 292.266 191.444C292.519 190.827 292.778 190.163 293.037 189.486C293.296 189.539 295.42 189.97 296.41 189.745C296.899 189.669 297.366 189.487 297.778 189.211C298.19 188.936 298.536 188.574 298.793 188.151C298.896 187.946 298.955 187.721 298.965 187.492C298.975 187.263 298.936 187.034 298.851 186.821C298.767 186.608 298.638 186.415 298.473 186.255C298.309 186.095 298.113 185.972 297.897 185.893C296.569 185.449 294.577 186.936 293.86 187.932C293.813 187.985 293.415 188.676 293.196 189.114C293.302 188.835 293.408 188.563 293.508 188.277C293.72 187.706 293.913 187.128 294.119 186.518C294.212 186.212 294.298 185.907 294.391 185.601C294.484 185.296 294.557 184.937 294.637 184.645C294.816 183.895 294.962 183.131 295.088 182.354C296.11 182.766 297.19 183.015 298.289 183.091C298.785 183.092 299.276 182.983 299.725 182.773C300.175 182.563 300.573 182.257 300.892 181.876C301.024 181.689 301.115 181.475 301.159 181.25C301.204 181.025 301.2 180.793 301.149 180.569C301.097 180.346 300.999 180.135 300.861 179.952C300.723 179.769 300.548 179.617 300.347 179.506C299.119 178.875 296.921 180.044 296.044 180.913C295.991 180.967 295.434 181.657 295.135 182.049C295.208 181.577 295.281 181.113 295.341 180.641C295.513 179.273 295.639 177.879 295.779 176.498C295.819 176.073 295.865 175.648 295.912 175.223C296.084 175.289 298.189 176.073 299.232 176C300.148 175.933 301.303 175.601 301.835 174.785C301.965 174.596 302.055 174.383 302.099 174.157C302.142 173.932 302.137 173.7 302.085 173.477C302.034 173.254 301.935 173.044 301.797 172.861C301.659 172.677 301.484 172.525 301.283 172.414C300.062 171.75 297.857 172.945 296.987 173.815C296.921 173.882 296.118 174.884 295.932 175.143C296.031 174.207 296.137 173.277 296.277 172.368C296.464 171.137 296.73 169.919 297.074 168.722C297.153 168.722 299.345 169.579 300.394 169.506C300.89 169.505 301.38 169.395 301.829 169.185C302.279 168.976 302.677 168.67 302.997 168.291C303.129 168.103 303.22 167.89 303.264 167.665C303.309 167.44 303.305 167.208 303.253 166.984C303.202 166.76 303.104 166.55 302.966 166.367C302.828 166.183 302.653 166.031 302.452 165.92C301.224 165.289 299.026 166.451 298.149 167.321C298.09 167.381 297.485 168.145 297.2 168.51H297.133C297.511 167.314 297.996 166.153 298.581 165.044C298.893 164.433 299.245 163.862 299.564 163.317C300.553 163.844 301.616 164.218 302.718 164.426C303.212 164.477 303.711 164.421 304.181 164.26C304.651 164.1 305.081 163.839 305.44 163.497C305.591 163.325 305.704 163.123 305.772 162.904C305.839 162.686 305.861 162.455 305.834 162.228C305.807 162.001 305.732 161.782 305.615 161.585C305.498 161.388 305.341 161.218 305.155 161.086C303.999 160.323 301.688 161.239 300.726 162.009C300.673 162.049 300.188 162.534 299.836 162.892C299.995 162.647 300.148 162.388 300.307 162.162C300.878 161.292 301.463 160.529 301.987 159.858C302.286 159.479 302.565 159.147 302.824 158.835C303.948 158.846 305.067 158.687 306.144 158.364C306.607 158.185 307.025 157.907 307.37 157.549C307.714 157.191 307.975 156.762 308.136 156.292C308.198 156.055 308.206 155.808 308.159 155.567C308.112 155.327 308.011 155.1 307.864 154.905C307.717 154.709 307.528 154.548 307.311 154.436C307.093 154.323 306.853 154.261 306.609 154.254ZM291.41 191.126C290.918 192.268 290.44 193.284 290.029 194.147H288.574C288.422 193.124 288.216 191.909 287.91 190.548C287.784 189.884 287.632 189.22 287.472 188.496C288.117 188.234 288.746 187.937 289.358 187.607C290.191 188.321 291.118 188.918 292.114 189.379C291.901 189.984 291.655 190.568 291.41 191.126Z" fill="#263238"/>
<path d="M18.9041 210.461L26.6065 284.252" stroke="#263238" stroke-width="2" stroke-miterlimit="10"/>
<path d="M25.3648 270.128L21.8722 266.443" stroke="#263238" stroke-width="2" stroke-miterlimit="10"/>
<path d="M22.9345 267.545C22.9259 266.982 22.7978 266.426 22.5585 265.916C22.3193 265.405 21.9744 264.951 21.5468 264.584C20.6504 263.787 15.9293 261.802 15.4844 263.462C14.9997 265.268 19.827 268.814 22.9345 267.545Z" fill="#92E3A9" stroke="#263238" stroke-miterlimit="10"/>
<path d="M22.9346 267.545L18.4459 264.75" stroke="#263238" stroke-width="0.5" stroke-miterlimit="10"/>
<path d="M26.2413 278.521L22.7487 274.836" stroke="#263238" stroke-width="2" stroke-miterlimit="10"/>
<path d="M23.811 275.938C23.8024 275.375 23.6742 274.819 23.435 274.309C23.1958 273.798 22.8509 273.344 22.4232 272.977C21.5268 272.18 16.8058 270.195 16.3609 271.855C15.8762 273.661 20.7035 277.207 23.811 275.938Z" fill="#92E3A9" stroke="#263238" stroke-miterlimit="10"/>
<path d="M23.811 275.938L19.3224 273.143" stroke="#263238" stroke-width="0.5" stroke-miterlimit="10"/>
<path d="M23.2266 249.651L19.734 245.965" stroke="#263238" stroke-width="2" stroke-miterlimit="10"/>
<path d="M20.7965 247.068C20.7878 246.504 20.6597 245.949 20.4205 245.438C20.1812 244.927 19.8364 244.474 19.4087 244.106C18.5123 243.303 13.7913 241.324 13.3464 242.984C12.8617 244.79 17.6889 248.336 20.7965 247.068Z" fill="#92E3A9" stroke="#263238" stroke-miterlimit="10"/>
<path d="M20.7965 247.068L16.3079 244.272" stroke="#263238" stroke-width="0.5" stroke-miterlimit="10"/>
<path d="M24.1032 258.044L20.6106 254.358" stroke="#263238" stroke-width="2" stroke-miterlimit="10"/>
<path d="M21.673 255.461C21.6644 254.897 21.5362 254.341 21.297 253.831C21.0578 253.32 20.7129 252.867 20.2852 252.499C19.3888 251.696 14.6678 249.717 14.2229 251.377C13.7382 253.183 18.592 256.729 21.673 255.461Z" fill="#92E3A9" stroke="#263238" stroke-miterlimit="10"/>
<path d="M21.673 255.461L17.1843 252.665" stroke="#263238" stroke-width="0.5" stroke-miterlimit="10"/>
<path d="M21.8058 236.019L18.3131 232.327" stroke="#263238" stroke-width="2" stroke-miterlimit="10"/>
<path d="M19.3756 233.436C19.3687 232.871 19.2406 232.315 19.0001 231.804C18.7595 231.293 18.412 230.839 17.9812 230.474C17.0848 229.671 12.3704 227.692 11.9255 229.352C11.4408 231.158 16.268 234.704 19.3756 233.436Z" fill="#92E3A9" stroke="#263238" stroke-miterlimit="10"/>
<path d="M19.3755 233.436L14.8868 230.64" stroke="#263238" stroke-width="0.5" stroke-miterlimit="10"/>
<path d="M20.3781 222.327L16.8855 218.635" stroke="#263238" stroke-width="2" stroke-miterlimit="10"/>
<path d="M17.928 219.744C17.9211 219.179 17.7931 218.623 17.5525 218.112C17.3119 217.601 16.9645 217.148 16.5336 216.783C15.6372 215.979 10.9228 213.994 10.4779 215.661C10.0065 217.467 14.8337 221.012 17.928 219.744Z" fill="#92E3A9" stroke="#263238" stroke-miterlimit="10"/>
<path d="M17.9479 219.744L13.4526 216.942" stroke="#263238" stroke-width="0.5" stroke-miterlimit="10"/>
<path d="M24.7805 265.162L27.4299 260.832" stroke="#263238" stroke-width="2" stroke-miterlimit="10"/>
<path d="M26.6197 262.134C26.5138 261.582 26.5259 261.014 26.6552 260.467C26.7845 259.92 27.0281 259.406 27.37 258.96C28.0805 257.991 32.2836 255.076 33.0671 256.609C33.9171 258.296 29.9264 262.738 26.6197 262.134Z" fill="#92E3A9" stroke="#263238" stroke-miterlimit="10"/>
<path d="M26.6198 262.134L30.6635 258.269" stroke="#263238" stroke-width="0.5" stroke-miterlimit="10"/>
<path d="M22.4697 243.077L25.1257 238.748" stroke="#263238" stroke-width="2" stroke-miterlimit="10"/>
<path d="M24.3157 240.049C24.2088 239.496 24.2204 238.927 24.3497 238.378C24.4791 237.83 24.7232 237.316 25.066 236.869C25.7765 235.899 29.9796 232.984 30.7631 234.518C31.613 236.185 27.6224 240.653 24.3157 240.049Z" fill="#92E3A9" stroke="#263238" stroke-miterlimit="10"/>
<path d="M24.3157 240.049L28.3594 236.185" stroke="#263238" stroke-width="0.5" stroke-miterlimit="10"/>
<path d="M21.4604 233.376L24.1164 229.047" stroke="#263238" stroke-width="2" stroke-miterlimit="10"/>
<path d="M23.3063 230.348C23.1975 229.795 23.2076 229.224 23.3358 228.675C23.464 228.125 23.7074 227.609 24.05 227.161C24.7671 226.192 28.9703 223.277 29.7471 224.81C30.5971 226.477 26.6064 230.946 23.3063 230.348Z" fill="#92E3A9" stroke="#263238" stroke-miterlimit="10"/>
<path d="M23.3064 230.348L27.3502 226.484" stroke="#263238" stroke-width="0.5" stroke-miterlimit="10"/>
<path d="M19.9731 219.147L22.6291 214.817" stroke="#263238" stroke-width="2" stroke-miterlimit="10"/>
<path d="M21.819 216.119C21.7112 215.565 21.7223 214.994 21.8516 214.444C21.981 213.895 22.2256 213.379 22.5693 212.931C23.2798 211.962 27.4829 209.047 28.2665 210.581C29.1164 212.248 25.1257 216.716 21.819 216.119Z" fill="#92E3A9" stroke="#263238" stroke-miterlimit="10"/>
<path d="M21.819 216.119L25.8627 212.254" stroke="#263238" stroke-width="0.5" stroke-miterlimit="10"/>
<path d="M18.8377 210.05C18.7298 209.496 18.7409 208.925 18.8703 208.375C18.9996 207.826 19.2443 207.31 19.588 206.863C20.2985 205.893 24.5016 202.978 25.2851 204.512C26.1351 206.179 22.1444 210.647 18.8377 210.05Z" fill="#92E3A9" stroke="#263238" stroke-miterlimit="10"/>
<path d="M18.8376 210.05L22.8814 206.185" stroke="#263238" stroke-width="0.5" stroke-miterlimit="10"/>
<path d="M19.0767 210.216C18.5156 210.269 17.9497 210.202 17.4163 210.02C16.8829 209.838 16.3942 209.545 15.9825 209.16C15.0994 208.35 12.6625 203.848 14.2428 203.244C15.9891 202.553 20.0196 206.995 19.0767 210.216Z" fill="#92E3A9" stroke="#263238" stroke-miterlimit="10"/>
<path d="M19.0767 210.216L15.6571 205.787" stroke="#263238" stroke-width="0.5" stroke-miterlimit="10"/>
<path d="M39.2159 220.621L31.5599 294.418" stroke="#263238" stroke-width="2" stroke-miterlimit="10"/>
<path d="M33.2532 280.341L30.5972 276.018" stroke="#263238" stroke-width="2" stroke-miterlimit="10"/>
<path d="M31.4072 277.313C31.5141 276.76 31.5025 276.19 31.3732 275.642C31.2439 275.094 30.9997 274.579 30.6569 274.132C29.9398 273.163 25.7367 270.255 24.9532 271.782C24.1099 273.455 28.1005 277.917 31.4072 277.313Z" fill="#92E3A9" stroke="#263238" stroke-miterlimit="10"/>
<path d="M31.4072 277.313L27.5892 273.654" stroke="#263238" stroke-width="0.5" stroke-miterlimit="10"/>
<path d="M35.3779 259.863L32.7219 255.534" stroke="#263238" stroke-width="2" stroke-miterlimit="10"/>
<path d="M33.532 256.835C33.6399 256.281 33.6288 255.71 33.4994 255.161C33.3701 254.611 33.1254 254.096 32.7817 253.648C32.0712 252.678 27.8615 249.764 27.0846 251.297C26.2347 252.984 30.2253 257.439 33.532 256.835Z" fill="#92E3A9" stroke="#263238" stroke-miterlimit="10"/>
<path d="M33.532 256.835L29.714 253.17" stroke="#263238" stroke-width="0.5" stroke-miterlimit="10"/>
<path d="M34.5081 268.256L31.8521 263.927" stroke="#263238" stroke-width="2" stroke-miterlimit="10"/>
<path d="M32.6621 265.228C32.769 264.675 32.7574 264.106 32.6281 263.557C32.4987 263.009 32.2546 262.495 31.9118 262.048C31.1947 261.078 26.9916 258.163 26.208 259.697C25.3648 261.364 29.3554 265.832 32.6621 265.228Z" fill="#92E3A9" stroke="#263238" stroke-miterlimit="10"/>
<path d="M32.6621 265.228L28.8441 261.563" stroke="#263238" stroke-width="0.5" stroke-miterlimit="10"/>
<path d="M36.7922 246.231L34.1362 241.902" stroke="#263238" stroke-width="2" stroke-miterlimit="10"/>
<path d="M34.9464 243.203C35.0542 242.649 35.0431 242.079 34.9138 241.529C34.7844 240.98 34.5398 240.464 34.196 240.016C33.4856 239.053 29.2758 236.138 28.4989 237.672C27.649 239.339 31.6396 243.808 34.9464 243.203Z" fill="#92E3A9" stroke="#263238" stroke-miterlimit="10"/>
<path d="M34.9463 243.203L31.1283 239.538" stroke="#263238" stroke-width="0.5" stroke-miterlimit="10"/>
<path d="M38.2131 232.539L35.5571 228.21" stroke="#263238" stroke-width="2" stroke-miterlimit="10"/>
<path d="M36.3672 229.512C36.4751 228.957 36.464 228.387 36.3347 227.837C36.2053 227.288 35.9607 226.772 35.6169 226.324C34.9064 225.355 30.6967 222.447 29.9198 223.98C29.0699 225.647 33.0605 230.109 36.3672 229.512Z" fill="#92E3A9" stroke="#263238" stroke-miterlimit="10"/>
<path d="M36.3673 229.512L32.5493 225.846" stroke="#263238" stroke-width="0.5" stroke-miterlimit="10"/>
<path d="M33.698 275.361L37.1906 271.676" stroke="#263238" stroke-width="2" stroke-miterlimit="10"/>
<path d="M36.1282 272.778C36.1368 272.214 36.2649 271.659 36.5042 271.148C36.7434 270.638 37.0882 270.184 37.5159 269.816C38.4123 269.02 43.1267 267.028 43.5783 268.688C44.063 270.494 39.2357 274.046 36.1282 272.778Z" fill="#92E3A9" stroke="#263238" stroke-miterlimit="10"/>
<path d="M36.1282 272.778L40.8824 269.83" stroke="#263238" stroke-width="0.5" stroke-miterlimit="10"/>
<path d="M35.9888 253.276L39.4814 249.591" stroke="#263238" stroke-width="2" stroke-miterlimit="10"/>
<path d="M38.4191 250.693C38.4318 250.127 38.5651 249.57 38.8101 249.059C39.0552 248.549 39.4063 248.096 39.84 247.732C40.7364 246.928 45.4508 244.943 45.9023 246.603C46.3539 248.409 41.5332 251.961 38.4191 250.693Z" fill="#92E3A9" stroke="#263238" stroke-miterlimit="10"/>
<path d="M38.4191 250.693L43.1733 247.745" stroke="#263238" stroke-width="0.5" stroke-miterlimit="10"/>
<path d="M36.998 243.568L40.4907 239.883" stroke="#263238" stroke-width="2" stroke-miterlimit="10"/>
<path d="M39.4283 240.985C39.437 240.422 39.5651 239.866 39.8043 239.356C40.0436 238.845 40.3884 238.391 40.8161 238.024C41.7125 237.227 46.4269 235.235 46.8718 236.895C47.3631 238.708 42.5359 242.254 39.4283 240.985Z" fill="#92E3A9" stroke="#263238" stroke-miterlimit="10"/>
<path d="M39.4283 240.986L44.1826 238.037" stroke="#263238" stroke-width="0.5" stroke-miterlimit="10"/>
<path d="M38.4722 229.346L41.9648 225.654" stroke="#263238" stroke-width="2" stroke-miterlimit="10"/>
<path d="M40.9023 226.756C40.9072 226.188 41.0335 225.627 41.2729 225.112C41.5123 224.596 41.8591 224.138 42.2901 223.768C43.1865 222.971 47.9009 220.979 48.3524 222.646C48.8371 224.478 44.0165 228.024 40.9023 226.756Z" fill="#92E3A9" stroke="#263238" stroke-miterlimit="10"/>
<path d="M40.9023 226.756L45.6566 223.808" stroke="#263238" stroke-width="0.5" stroke-miterlimit="10"/>
<path d="M39.2357 220.209C39.2443 219.645 39.3725 219.09 39.6117 218.579C39.8509 218.069 40.1958 217.615 40.6235 217.247C41.5199 216.444 46.2343 214.459 46.6858 216.119C47.144 217.925 42.3499 221.477 39.2357 220.209Z" fill="#92E3A9" stroke="#263238" stroke-miterlimit="10"/>
<path d="M39.2357 220.209L43.99 217.261" stroke="#263238" stroke-width="0.5" stroke-miterlimit="10"/>
<path d="M39.435 220.448C38.8745 220.384 38.3343 220.2 37.8509 219.909C37.3675 219.618 36.9522 219.227 36.6329 218.761C35.9291 217.785 34.4484 212.892 36.1482 212.619C37.9941 212.287 41.022 217.46 39.435 220.448Z" fill="#92E3A9" stroke="#263238" stroke-miterlimit="10"/>
<path d="M39.4349 220.415L36.998 215.382" stroke="#263238" stroke-width="0.5" stroke-miterlimit="10"/>
<path d="M30.4377 190.568V283.893" stroke="#263238" stroke-width="2" stroke-miterlimit="10"/>
<path d="M30.5175 269.863L27.4232 265.832" stroke="#263238" stroke-width="2" stroke-miterlimit="10"/>
<path d="M28.3661 267.041C28.4164 266.478 28.3464 265.911 28.161 265.378C27.9755 264.845 27.6788 264.357 27.2904 263.947C26.4803 263.063 21.9784 260.627 21.3808 262.207C20.7102 263.947 25.139 267.977 28.3661 267.041Z" fill="#92E3A9" stroke="#263238" stroke-miterlimit="10"/>
<path d="M28.366 267.041L24.1895 263.794" stroke="#263238" stroke-width="0.5" stroke-miterlimit="10"/>
<path d="M30.5175 252.32L27.4232 248.296" stroke="#263238" stroke-width="2" stroke-miterlimit="10"/>
<path d="M28.3661 249.505C28.4164 248.942 28.3464 248.375 28.161 247.842C27.9755 247.308 27.6788 246.82 27.2904 246.41C26.4803 245.521 21.9784 243.057 21.3808 244.664C20.7102 246.41 25.139 250.441 28.3661 249.505Z" fill="#92E3A9" stroke="#263238" stroke-miterlimit="10"/>
<path d="M28.366 249.505L24.1895 246.251" stroke="#263238" stroke-width="0.5" stroke-miterlimit="10"/>
<path d="M30.5175 231.736L27.4232 227.705" stroke="#263238" stroke-width="2" stroke-miterlimit="10"/>
<path d="M28.3661 228.914C28.4164 228.351 28.3464 227.785 28.161 227.251C27.9755 226.718 27.6788 226.23 27.2904 225.82C26.4803 224.93 21.9784 222.5 21.3808 224.073C20.7102 225.82 25.139 229.85 28.3661 228.914Z" fill="#92E3A9" stroke="#263238" stroke-miterlimit="10"/>
<path d="M28.366 228.914L24.1895 225.66" stroke="#263238" stroke-width="0.5" stroke-miterlimit="10"/>
<path d="M30.5175 218.024L27.4232 213.994" stroke="#263238" stroke-width="2" stroke-miterlimit="10"/>
<path d="M28.3661 215.202C28.4154 214.641 28.345 214.075 28.1596 213.543C27.9741 213.011 27.6779 212.524 27.2904 212.115C26.4803 211.225 21.9784 208.762 21.3808 210.368C20.7102 212.115 25.139 216.145 28.3661 215.202Z" fill="#92E3A9" stroke="#263238" stroke-miterlimit="10"/>
<path d="M28.366 215.202L24.1895 211.955" stroke="#263238" stroke-width="0.5" stroke-miterlimit="10"/>
<path d="M30.5175 204.26L27.4232 200.229" stroke="#263238" stroke-width="2" stroke-miterlimit="10"/>
<path d="M28.3661 201.438C28.4154 200.876 28.345 200.311 28.1596 199.778C27.9741 199.246 27.6779 198.759 27.2904 198.35C26.4803 197.46 21.9784 194.997 21.3808 196.604C20.7102 198.35 25.139 202.38 28.3661 201.438Z" fill="#92E3A9" stroke="#263238" stroke-miterlimit="10"/>
<path d="M28.366 201.438L24.1895 198.191" stroke="#263238" stroke-width="0.5" stroke-miterlimit="10"/>
<path d="M30.4443 275.215L33.5386 271.184" stroke="#263238" stroke-width="2" stroke-miterlimit="10"/>
<path d="M32.5957 272.393C32.5464 271.831 32.6168 271.266 32.8022 270.733C32.9877 270.201 33.2839 269.714 33.6714 269.305C34.4815 268.415 38.9834 265.952 39.581 267.559C40.2516 269.305 35.856 273.336 32.5957 272.393Z" fill="#92E3A9" stroke="#263238" stroke-miterlimit="10"/>
<path d="M32.5957 272.393L37.0179 268.973" stroke="#263238" stroke-width="0.5" stroke-miterlimit="10"/>
<path d="M30.4443 247.32L33.5386 243.296" stroke="#263238" stroke-width="2" stroke-miterlimit="10"/>
<path d="M32.5958 244.505C32.5455 243.942 32.6154 243.375 32.8009 242.842C32.9863 242.308 33.2831 241.821 33.6714 241.41C34.4815 240.521 38.9834 238.09 39.581 239.664C40.2517 241.41 35.856 245.441 32.5958 244.505Z" fill="#92E3A9" stroke="#263238" stroke-miterlimit="10"/>
<path d="M32.5957 244.505L37.0179 241.078" stroke="#263238" stroke-width="0.5" stroke-miterlimit="10"/>
<path d="M30.4443 233.555L33.5386 229.525" stroke="#263238" stroke-width="2" stroke-miterlimit="10"/>
<path d="M32.5957 230.733C32.5464 230.172 32.6168 229.606 32.8022 229.074C32.9877 228.542 33.2839 228.055 33.6714 227.646C34.4815 226.756 38.9834 224.326 39.581 225.899C40.2516 227.646 35.856 231.676 32.5957 230.733Z" fill="#92E3A9" stroke="#263238" stroke-miterlimit="10"/>
<path d="M32.5957 230.733L37.0179 227.314" stroke="#263238" stroke-width="0.5" stroke-miterlimit="10"/>
<path d="M30.4443 215.362L33.5386 211.331" stroke="#263238" stroke-width="2" stroke-miterlimit="10"/>
<path d="M32.5957 212.54C32.5464 211.978 32.6168 211.413 32.8022 210.881C32.9877 210.348 33.2839 209.861 33.6714 209.452C34.4815 208.562 38.9834 206.099 39.581 207.706C40.2516 209.452 35.856 213.483 32.5957 212.54Z" fill="#92E3A9" stroke="#263238" stroke-miterlimit="10"/>
<path d="M32.5957 212.54L37.0179 209.114" stroke="#263238" stroke-width="0.5" stroke-miterlimit="10"/>
<path d="M30.4443 201.053L33.5386 197.022" stroke="#263238" stroke-width="2" stroke-miterlimit="10"/>
<path d="M32.5958 198.237C32.5455 197.675 32.6154 197.108 32.8009 196.574C32.9863 196.041 33.2831 195.553 33.6714 195.143C34.4815 194.253 38.9834 191.79 39.581 193.397C40.2517 195.143 35.856 199.2 32.5958 198.237Z" fill="#92E3A9" stroke="#263238" stroke-miterlimit="10"/>
<path d="M32.5957 198.237L37.0179 194.811" stroke="#263238" stroke-width="0.5" stroke-miterlimit="10"/>
<path d="M30.2651 191.896C30.2119 191.335 30.2798 190.769 30.4643 190.236C30.6487 189.703 30.9454 189.216 31.3342 188.808C32.1443 187.919 36.6462 185.488 37.2504 187.062C37.9211 188.802 33.4855 192.832 30.2651 191.896Z" fill="#92E3A9" stroke="#263238" stroke-miterlimit="10"/>
<path d="M30.2651 191.889L34.6874 188.463" stroke="#263238" stroke-width="0.5" stroke-miterlimit="10"/>
<path d="M30.4776 192.082C29.9134 192.072 29.3576 191.943 28.847 191.703C28.3365 191.462 27.8829 191.116 27.5161 190.687C26.7193 189.791 24.7406 185.07 26.4006 184.625C28.2067 184.14 31.7525 188.974 30.4776 192.082Z" fill="#92E3A9" stroke="#263238" stroke-miterlimit="10"/>
<path d="M30.4775 192.082L27.536 187.321" stroke="#263238" stroke-width="0.5" stroke-miterlimit="10"/>
<path d="M34.2823 308.096H24.3953L23.1603 283.136H35.5173L34.2823 308.096Z" fill="#263238" stroke="#263238" stroke-miterlimit="10"/>
<path d="M76.4131 116.984H17.0382V22.4631H90.5496V116.984H80.2709" stroke="#263238" stroke-miterlimit="10"/>
<path d="M87.887 25.8894H19.7075V113.557H87.887V25.8894Z" stroke="#263238" stroke-miterlimit="10"/>
<path d="M33.366 49.8997C34.5726 51.0162 35.8622 52.0395 37.2238 52.9607C52.6485 63.4253 78.8101 58.4719 87.6214 73.3389" stroke="#263238" stroke-miterlimit="10"/>
<path d="M24.2825 26.2479C23.913 30.1641 24.3582 34.1143 25.5901 37.85C26.822 41.5857 28.8139 45.0259 31.4404 47.9541" stroke="#263238" stroke-miterlimit="10"/>
<path d="M30.1256 74.5407C37.6487 70.5567 47.3896 67.7479 52.3763 75.8155C58.1597 85.1846 31.4403 101.712 31.4403 113.544" stroke="#263238" stroke-miterlimit="10"/>
<path d="M19.8801 81.3268C22.4559 79.2456 25.1862 77.3633 28.0473 75.696" stroke="#263238" stroke-miterlimit="10"/>
<path d="M55.4042 26.2479C55.4042 26.2479 65.3177 41.6726 87.9003 37.5359" stroke="#263238" stroke-miterlimit="10"/>
<path d="M58.3656 41.3937C58.4112 41.7593 58.4334 42.1275 58.432 42.496C58.4287 44.7124 57.6145 46.851 56.1431 48.5085C54.6717 50.166 52.6446 51.2279 50.4442 51.4938C48.2438 51.7598 46.0221 51.2114 44.1982 49.9522C42.3742 48.693 41.074 46.8099 40.5428 44.6581C40.0116 42.5062 40.286 40.2344 41.3144 38.271C42.3428 36.3076 44.054 34.7883 46.1253 33.9997C48.1967 33.211 50.485 33.2075 52.5588 33.9898C54.6326 34.7721 56.3484 36.2861 57.3828 38.2464" stroke="#263238" stroke-miterlimit="10"/>
<path d="M81.008 54.7534C81.0041 55.5973 80.7501 56.4211 80.2783 57.1207C79.8065 57.8203 79.1379 58.3645 78.357 58.6844C77.5762 59.0043 76.718 59.0856 75.8909 58.9181C75.0639 58.7505 74.305 58.3417 73.7101 57.7431C73.1153 57.1446 72.7112 56.3832 72.5488 55.5551C72.3864 54.727 72.4731 53.8693 72.7978 53.0905C73.1225 52.3116 73.6708 51.6464 74.3734 51.179C75.0759 50.7115 75.9012 50.4627 76.7451 50.464C77.3072 50.464 77.8637 50.5751 78.3826 50.791C78.9015 51.0069 79.3727 51.3233 79.7688 51.7219C80.165 52.1206 80.4785 52.5937 80.6912 53.1139C80.9038 53.6342 81.0115 54.1914 81.008 54.7534V54.7534Z" stroke="#263238" stroke-miterlimit="10"/>
<path d="M81.0677 83.5511C83.4725 84.1767 85.716 85.3086 87.648 86.8711" stroke="#263238" stroke-miterlimit="10"/>
<path d="M64.7135 113.61C62.098 111.212 60.2677 108.08 59.462 104.624C58.6563 101.167 58.9128 97.5487 60.1979 94.2408C61.4831 90.933 63.7369 88.0902 66.6645 86.0845C69.5921 84.0788 73.057 83.0038 76.6057 83C76.951 83 77.2697 83 77.6216 83" stroke="#263238" stroke-miterlimit="10"/>
<path d="M213.808 308.096H319.384" stroke="#263238" stroke-miterlimit="10"/>
<path d="M10.624 308.096H208.496" stroke="#263238" stroke-miterlimit="10"/>
<path d="M262.632 28.2201H128.617V276.483H262.632V28.2201Z" fill="white"/>
<path d="M262.632 234.146H128.617V276.483H262.632V234.146Z" fill="#DEDEDE"/>
<path d="M266.656 77.0639C267.094 77.0639 267.515 76.8897 267.825 76.5796C268.135 76.2696 268.309 75.849 268.309 75.4105V58.857C268.309 58.4185 268.135 57.998 267.825 57.6879C267.515 57.3778 267.094 57.2037 266.656 57.2037C266.552 57.1935 266.448 57.1935 266.344 57.2037V26.2679C266.344 23.4379 265.22 20.7238 263.218 18.7227C261.217 16.7216 258.503 15.5974 255.673 15.5974H138.046C136.644 15.5965 135.256 15.8719 133.96 16.4077C132.665 16.9436 131.488 17.7294 130.496 18.7204C129.505 19.7113 128.718 20.8879 128.181 22.1829C127.645 23.478 127.369 24.8661 127.369 26.2679V276.124C127.369 278.956 128.493 281.672 130.496 283.674C132.498 285.677 135.214 286.802 138.046 286.802H255.673C258.504 286.8 261.218 285.674 263.219 283.672C265.22 281.67 266.344 278.955 266.344 276.124V124.122C266.448 124.132 266.552 124.132 266.656 124.122C267.095 124.12 267.515 123.944 267.825 123.633C268.135 123.322 268.309 122.901 268.309 122.462V105.941C268.309 105.503 268.135 105.082 267.825 104.772C267.515 104.462 267.094 104.288 266.656 104.288C266.551 104.289 266.446 104.3 266.344 104.321V100.576C266.446 100.597 266.551 100.608 266.656 100.609C267.094 100.608 267.513 100.433 267.823 100.123C268.133 99.8134 268.307 99.3939 268.309 98.956V82.3958C268.307 81.9578 268.133 81.5383 267.823 81.2286C267.513 80.919 267.094 80.7442 266.656 80.7424C266.551 80.7433 266.446 80.7544 266.344 80.7757V77.0241C266.446 77.0475 266.551 77.0608 266.656 77.0639ZM260.162 270.706H133.55V34.0101H260.162V270.706Z" fill="#263238"/>
<path d="M255.853 36.4669H245.355V42.2238H255.853V36.4669Z" stroke="#263238" stroke-width="0.821067" stroke-linecap="round" stroke-linejoin="round"/>
<path d="M253.542 36.4669H245.355V42.2238H253.542V36.4669Z" fill="#263238" stroke="#263238" stroke-width="0.725073" stroke-linecap="round" stroke-linejoin="round"/>
<path d="M257.313 38.0804H255.833V40.6169H257.313V38.0804Z" fill="#263238" stroke="#263238" stroke-width="0.725073" stroke-linecap="round" stroke-linejoin="round"/>
<path d="M138.325 38.2531H136.399V41.5531H138.325V38.2531Z" fill="#263238" stroke="#263238" stroke-width="0.883086" stroke-linecap="round" stroke-linejoin="round"/>
<path d="M141.352 37.0978H139.427V41.5532H141.352V37.0978Z" fill="#263238" stroke="#263238" stroke-width="0.883086" stroke-linecap="round" stroke-linejoin="round"/>
<path d="M144.374 35.7233H142.448V41.5532H144.374V35.7233Z" fill="#263238" stroke="#263238" stroke-width="0.883086" stroke-linecap="round" stroke-linejoin="round"/>
<path d="M257.174 45.4243H135.589V77.376H257.174V45.4243Z" fill="#92E3A9"/>
<path d="M166.319 50.0258V73.4849" stroke="white" stroke-miterlimit="10"/>
<path d="M197.301 50.0258V73.4849" stroke="white" stroke-miterlimit="10"/>
<path d="M228.29 50.0258V73.4849" stroke="white" stroke-miterlimit="10"/>
<path opacity="0.15" d="M265.248 124.122C265.352 124.132 265.456 124.132 265.56 124.122C265.999 124.12 266.42 123.944 266.73 123.633C267.04 123.322 267.214 122.901 267.214 122.462V116.532L259.066 130.894V270.706H179.805L170.648 286.802H254.571C257.403 286.802 260.119 285.677 262.121 283.674C264.123 281.672 265.248 278.956 265.248 276.124V124.122Z" fill="white"/>
<path d="M191.717 187.533V179.944H195.508V176.126H191.73C191.73 174.858 191.73 173.583 191.73 172.315H199.333V168.523H203.131V172.295H206.942V164.672H218.363V168.463H222.141V164.672H218.35V160.847H210.734V153.291H199.306V157.089H191.73V164.705H195.501V168.503H191.71V172.308H187.912V168.497H176.498V164.705H187.912V134.241H191.73C191.73 137.906 191.73 141.571 191.73 145.237V145.648H195.535V138.059H199.326V145.662H203.151V149.453H222.181V153.251H225.992V157.082H222.201V160.9H225.979V168.523H229.797V176.133H226.019V183.729H229.744V187.533H237.347V191.332H225.979V198.934H222.181V195.136H214.545V191.332H210.747V187.533H218.323V183.729H199.339V187.514H191.717V187.533ZM214.545 176.113V172.328H210.767V176.106H214.558V179.897H222.141V176.113H214.545ZM206.922 176.113H203.184V179.878H206.949L206.922 176.113ZM214.565 157.036H218.33V153.264H214.565V157.036Z" fill="#263238"/>
<path d="M157.461 145.635V119.022H184.067V145.635H157.461ZM161.279 122.84V141.837H180.269V122.84H161.279Z" fill="#263238"/>
<path d="M237.367 145.642H210.76V119.035H237.367V145.642ZM233.569 122.84H214.578V141.83H233.569V122.84Z" fill="#263238"/>
<path d="M157.468 172.315H184.081V198.928H157.468V172.315ZM180.276 176.133H161.279V195.13H180.276V176.133Z" fill="#263238"/>
<path d="M191.71 134.241V126.625H187.912V119.029H206.909V126.612H203.184V130.423H206.949V138.019H203.157V134.241H199.333V130.443H195.535V134.228H191.703L191.71 134.241ZM195.528 126.598H199.3V122.84H195.528V126.598Z" fill="#263238"/>
<path d="M176.478 153.265V157.069H184.081V160.867H172.68V168.477H157.474V160.907H161.239V164.672H168.875V153.265H176.484H176.478Z" fill="#263238"/>
<path d="M191.703 187.527V191.332H195.508V195.13H199.3V198.934H187.912V187.533H191.69L191.703 187.527Z" fill="#263238"/>
<path d="M168.875 153.264H161.266V157.056H157.474V149.486H168.862V153.271L168.875 153.264Z" fill="#263238"/>
<path d="M237.367 160.867H233.595V153.278H229.797V149.48H237.367V160.867Z" fill="#263238"/>
<path d="M176.485 153.278V149.486H184.074V153.264H176.478L176.485 153.278Z" fill="#263238"/>
<path d="M229.784 168.503V164.712H233.562V168.49H229.744L229.784 168.503Z" fill="#263238"/>
<path d="M233.602 172.321H237.367V176.093H233.602V172.321Z" fill="#263238"/>
<path d="M203.131 145.662V141.87H206.916V145.648H203.124L203.131 145.662Z" fill="#263238"/>
<path d="M191.717 179.944H187.912V176.146H191.69V179.944H191.717Z" fill="#263238"/>
<path d="M229.784 183.729V179.944H233.562V183.722H229.784V183.729Z" fill="#263238"/>
<path d="M225.966 157.083H229.744V160.881H225.966V157.063V157.083Z" fill="#263238"/>
<path d="M206.916 195.13H203.144V191.365H206.916V195.13Z" fill="#263238"/>
<path d="M214.545 195.136V198.928H210.767V195.15H214.558L214.545 195.136Z" fill="#263238"/>
<path d="M237.367 198.941H233.602V195.17H237.367V198.941Z" fill="#263238"/>
<path d="M206.942 164.672H203.184V160.894H206.969V164.672H206.942Z" fill="#263238"/>
<path d="M176.458 138.026H165.077V126.645H176.458V138.026Z" fill="#263238"/>
<path d="M218.37 138.019V126.638H229.744V138.019H218.37Z" fill="#263238"/>
<path d="M165.077 191.318V179.944H176.458V191.325L165.077 191.318Z" fill="#263238"/>
<path d="M168.516 110.005H151.85V128.391" stroke="#92E3A9" stroke-width="2" stroke-miterlimit="10"/>
<path d="M229.126 110.005H245.786V128.391" stroke="#92E3A9" stroke-width="2" stroke-miterlimit="10"/>
<path d="M168.516 206.829H151.85V188.443" stroke="#92E3A9" stroke-width="2" stroke-miterlimit="10"/>
<path d="M229.126 206.829H245.786V188.443" stroke="#92E3A9" stroke-width="2" stroke-miterlimit="10"/>
<path d="M117.807 113.989H112.276C111.297 113.989 110.503 114.783 110.503 115.762V131.253C110.503 132.232 111.297 133.026 112.276 133.026H117.807C118.786 133.026 119.58 132.232 119.58 131.253V115.762C119.58 114.783 118.786 113.989 117.807 113.989Z" fill="#263238" stroke="#263238" stroke-miterlimit="10"/>
<path d="M118.77 115.669H111.3V131.339H118.77V115.669Z" fill="white" stroke="#263238" stroke-miterlimit="10"/>
<path d="M38.2861 207.281C40.9502 207.266 43.5576 206.51 45.8159 205.096C45.6698 209.333 45.5569 212.54 45.5569 212.54C45.5569 212.54 46.2873 213.815 46.6525 214.366C47.0177 214.917 50.1186 216.736 50.4838 218.383C50.849 220.03 52.4758 220.939 52.3098 223.31C52.1438 225.68 50.1186 223.124 50.4838 223.675C50.849 224.226 51.9446 226.046 51.9446 227.692C51.9446 229.339 48.4785 229.332 47.197 228.237C45.9155 227.141 41.7257 224.585 41.3605 222.214L39.9329 216.902L38.2861 207.281Z" fill="white" stroke="#263238" stroke-miterlimit="10"/>
<path d="M45.869 220.448L46.7588 224.432C46.7588 224.432 49.6339 226.643 49.853 228.197" fill="white"/>
<path d="M45.869 220.448L46.7588 224.432C46.7588 224.432 49.6339 226.643 49.853 228.197" stroke="#263238" stroke-miterlimit="10"/>
<path d="M50.4772 223.675L49.1891 221.112" stroke="#263238" stroke-miterlimit="10"/>
<path d="M60.2181 304.623C60.2181 304.623 59.1756 313.169 59.9857 314.211C60.4424 314.868 61.0241 315.428 61.6974 315.86C62.3707 316.292 63.1226 316.587 63.9099 316.728C65.7558 316.96 68.8766 315.918 68.8766 315.918C70.9828 316.483 73.171 316.679 75.344 316.496C78.664 316.15 80.8818 314.882 81.1142 313.262C81.3465 311.642 78.4582 310.958 76.8446 309.225C75.2311 307.492 72.6548 304.424 72.6548 304.424L71.9908 302.18C71.9908 302.18 68.0665 304.172 65.5301 304.258C64.0955 304.344 62.6561 304.228 61.2539 303.913L60.2181 304.623Z" fill="white" stroke="#263238" stroke-miterlimit="10"/>
<path d="M81.1141 313.282C81.1404 313.092 81.1222 312.899 81.061 312.717C80.2974 313.036 79.3213 313.421 78.1128 313.86C74.6468 315.134 72.9137 314.092 71.1873 314.092C69.4609 314.092 69.3348 315.938 64.4876 314.67C61.3203 313.84 60.1317 312.771 59.6802 312.12C59.6166 312.831 59.7212 313.548 59.9856 314.211C60.4424 314.868 61.024 315.428 61.6974 315.86C62.3707 316.292 63.1225 316.587 63.9099 316.728C65.7558 316.96 68.8766 315.918 68.8766 315.918C70.9827 316.483 73.171 316.679 75.344 316.496C78.6905 316.17 80.8817 314.902 81.1141 313.282Z" fill="white" stroke="#263238" stroke-miterlimit="10"/>
<path d="M54.0628 198.536C54.0628 198.536 49.4148 214.14 51.0748 225.096C52.7348 236.052 60.7028 256.636 60.7028 256.636C60.7028 256.636 59.7068 264.272 59.7068 266.928C59.7068 269.584 57.3828 274.564 59.0428 279.876C60.7028 285.188 60.7028 299.132 60.7028 300.128C60.7028 301.124 60.0388 306.436 60.0388 306.436C60.0388 306.436 61.3668 308.428 66.3468 308.428C71.3268 308.428 72.6548 304.444 72.6548 304.444C72.6548 304.444 77.6348 274.896 77.6348 270.248C77.6348 265.6 82.9468 248.336 84.9388 241.364C86.2709 236.565 88.2006 231.951 90.6824 227.633C92.0104 225.309 91.2468 197.208 91.2468 197.208L53.3988 193.888L54.0628 198.536Z" fill="#737373" stroke="#263238" stroke-miterlimit="10"/>
<path d="M80.1912 306.821C80.1912 306.821 85.1579 308.78 87.5815 309.935C90.0051 311.091 91.6186 311.204 91.6186 313.056C91.6186 314.909 87.2362 316.748 84.5802 317.213C81.9242 317.678 77.6481 317.558 77.1899 317.671C76.7318 317.784 68.0666 319.059 67.0307 316.861C65.9949 314.663 67.1436 307.166 67.1436 307.166C71.4735 307.906 75.9065 307.789 80.1912 306.821Z" fill="white" stroke="#263238" stroke-miterlimit="10"/>
<path d="M77.1899 317.671C77.6481 317.558 81.9243 317.671 84.5803 317.213C87.2363 316.755 91.6187 314.902 91.6187 313.056C91.6203 312.813 91.5845 312.571 91.5124 312.339C90.3913 312.993 89.2316 313.578 88.0397 314.092C84.806 315.48 80.5365 316.403 74.0957 316.29C71.6 316.284 69.1149 315.965 66.6987 315.34C66.7357 315.863 66.8568 316.377 67.0573 316.861C68.0666 319.059 76.7251 317.79 77.1899 317.671Z" fill="white" stroke="#263238" stroke-miterlimit="10"/>
<path d="M91.5788 199.864C91.5788 199.864 93.5708 226.756 89.5868 247.008C85.6028 267.26 78.9628 294.816 78.6308 296.144C78.2988 297.472 80.9548 301.124 80.9548 301.124V306.436C80.9548 306.436 78.6308 308.76 73.3188 309.424C68.0068 310.088 66.3468 308.428 66.3468 308.428C66.3468 308.428 65.0188 299.464 65.0188 293.156C65.0188 286.848 66.3468 265.268 66.3468 265.268C66.3468 265.268 69.3348 243.356 69.0028 240.036C68.6708 236.716 67.6748 226.424 67.6748 226.424L62.3628 220.116" fill="#737373"/>
<path d="M91.5788 199.864C91.5788 199.864 93.5708 226.756 89.5868 247.008C85.6028 267.26 78.9628 294.816 78.6308 296.144C78.2988 297.472 80.9548 301.124 80.9548 301.124V306.436C80.9548 306.436 78.6308 308.76 73.3188 309.424C68.0068 310.088 66.3468 308.428 66.3468 308.428C66.3468 308.428 65.0188 299.464 65.0188 293.156C65.0188 286.848 66.3468 265.268 66.3468 265.268C66.3468 265.268 69.3348 243.356 69.0028 240.036C68.6708 236.716 67.6748 226.424 67.6748 226.424L62.3628 220.116" stroke="#263238" stroke-miterlimit="10"/>
<path d="M35.7696 194.804L46.2143 192.972C46.1679 194.386 46.4667 185.449 46.4667 184.785C46.4667 183.324 49.9327 174.161 49.9327 174.161C49.9327 174.161 52.6684 186.033 52.6684 187.494C52.6684 188.954 51.5728 200.11 53.0336 201.551C54.4944 202.991 59.6072 205.933 70.9284 205.568C82.2496 205.203 90.6492 204.286 92.8404 202.095C95.0316 199.904 92.4752 193.151 92.2893 192.241C92.1034 191.332 95.2109 167.408 95.2109 167.408C95.2109 167.408 107.442 180.19 114.746 178.364C122.05 176.538 118.584 148.072 118.584 148.072L118.949 139.858C118.949 139.858 121.319 133.836 121.319 132.92C121.319 132.003 118.949 125.436 118.949 125.436C118.949 125.436 117.488 124.155 116.572 127.262C116.058 128.931 115.692 130.642 115.476 132.375C115.476 132.375 113.285 134.015 113.484 136.392C113.594 137.826 113.9 139.238 114.394 140.589L109.454 156.704C109.454 156.704 103.976 150.496 103.611 149.4C103.245 148.304 103.425 144.287 98.8629 141.91C94.3012 139.533 84.9853 139.354 84.9853 139.354L59.242 139.54C59.242 139.54 47.1904 140.602 44.4879 142.972C41.7855 145.343 33.3527 175.475 33.3527 180.037C33.3527 181.465 34.0963 185.887 35.1388 191.358L35.7696 194.804Z" fill="white" stroke="#263238" stroke-miterlimit="10"/>
<path d="M118.949 125.45C118.949 125.45 118.398 130.011 118.763 130.928C119.287 132.515 119.412 134.207 119.128 135.854" stroke="#263238" stroke-miterlimit="10"/>
<path d="M114.746 178.397C122.05 176.571 118.584 148.085 118.584 148.085L118.663 146.246C117.865 145.641 116.94 145.226 115.957 145.031C114.975 144.837 113.961 144.868 112.993 145.124L109.454 156.704C109.454 156.704 103.976 150.496 103.61 149.4C103.245 148.304 103.425 144.287 98.8629 141.91C94.3012 139.533 84.9853 139.354 84.9853 139.354L59.242 139.54C59.242 139.54 47.1904 140.602 44.4879 142.973C41.7855 145.343 33.3527 175.475 33.3527 180.037C33.3527 182.746 36.0485 196.252 38.3194 207.261C40.9703 207.246 43.5652 206.497 45.8159 205.096C46.0815 197.201 46.4799 185.734 46.4799 184.785C46.4799 183.324 49.946 174.161 49.946 174.161C49.946 174.161 52.6817 186.033 52.6817 187.494C52.6817 188.955 51.5861 200.11 53.0469 201.551C54.5077 202.992 59.6205 205.933 70.9417 205.568C82.2629 205.203 90.6625 204.286 92.8537 202.095C95.0449 199.904 92.4885 193.151 92.3026 192.241C92.1167 191.332 95.2242 167.408 95.2242 167.408C95.2242 167.408 107.442 180.223 114.746 178.397Z" fill="#92E3A9" stroke="#263238" stroke-miterlimit="10"/>
<path d="M46.3472 164.147L49.9327 174.194L42.5491 161.571" stroke="#263238" stroke-miterlimit="10"/>
<path d="M44.3219 158.477L45.5901 162.029" stroke="#263238" stroke-miterlimit="10"/>
<path d="M69.6071 164.858C71.2206 168.483 73.5911 173.032 76.4131 175.96" stroke="#263238" stroke-miterlimit="10"/>
<path d="M67.3428 159.141C67.3428 159.141 67.8408 160.635 68.7305 162.806" stroke="#263238" stroke-miterlimit="10"/>
<path d="M71.3268 171.312C71.3268 171.312 75.3108 179.28 77.3028 180.827" stroke="#263238" stroke-miterlimit="10"/>
<path d="M101.459 161.651L102.973 160.243" stroke="#263238" stroke-miterlimit="10"/>
<path d="M98.9891 159.579L95.2109 167.441L100.085 162.926" stroke="#263238" stroke-miterlimit="10"/>
<path d="M116.253 164.008C116.034 162.461 109.454 156.671 109.454 156.671C109.454 156.671 116.253 159.36 118.026 161.797" stroke="#263238" stroke-miterlimit="10"/>
<path d="M87.5417 115.403C87.5417 115.403 87.9069 119.972 88.458 120.715C89.0091 121.459 89.3677 127.103 88.458 128.75C87.5483 130.396 86.9972 132.402 86.466 132.946C85.9348 133.491 83.9096 133.497 83.146 133.497C82.3824 133.497 74.2019 133.132 74.2019 133.132L74.3878 121.625C74.3878 121.625 76.4064 113.033 87.5417 115.403Z" fill="white" stroke="#263238" stroke-miterlimit="10"/>
<path d="M72.9403 102.628C72.9403 102.628 65.4504 104.998 63.8103 111.552C62.1702 118.106 67.4623 125.609 67.4623 125.609C67.4623 125.609 68.9231 130.921 70.198 132.003C71.4729 133.086 76.5857 132.003 78.2324 131.638C79.8791 131.273 83.5444 121.412 83.5444 121.412C83.5444 121.412 83.5444 123.783 84.64 123.783C85.7356 123.783 85.5563 120.682 85.5563 120.131C85.5563 119.58 90.6691 115.749 90.6691 109.182C90.6691 102.615 84.9919 99.7063 79.6799 100.072C74.3679 100.437 72.9403 102.628 72.9403 102.628Z" fill="#263238" stroke="#263238" stroke-miterlimit="10"/>
<path d="M88.458 138.955C88.458 138.955 87.3624 135.124 86.8113 134.58C86.2602 134.035 82.7941 131.837 77.1368 131.472C71.4796 131.107 63.08 131.293 62.3496 131.658C61.6192 132.023 61.4332 135.124 61.4332 135.124C61.4332 135.124 59.0628 137.315 58.5116 138.597C57.9605 139.878 57.416 140.416 62.4956 144.619C67.5752 148.822 70.3508 150.462 75.6428 149.181C80.9349 147.899 88.6041 140.237 88.6041 140.237L88.458 138.955Z" fill="#92E3A9" stroke="#263238" stroke-miterlimit="10"/>
<path d="M75.3971 141.545C78.991 140.316 82.4487 138.721 85.7157 136.784" stroke="#263238" stroke-miterlimit="10"/>
<path d="M61.4332 135.854C61.4332 135.854 64.7532 142.428 70.5632 142.428C71.3552 142.418 72.1444 142.334 72.9204 142.176" stroke="#263238" stroke-miterlimit="10"/>
</svg>
