<svg width="332" height="332" viewBox="0 0 332 332" fill="none" xmlns="http://www.w3.org/2000/svg">
<path d="M266.171 132.468C264.548 123.901 262.474 115.425 259.956 107.077C252.386 82.9136 237.32 58.4651 211.444 50.2448C192.341 44.1825 171.724 48.3657 155.582 60.7227C130.264 80.0983 111.838 106.539 84.1354 123.318C61.0083 137.335 48.9036 159.977 56.679 191.982C64.4545 223.987 90.4301 242.632 118.856 240.368C142.481 238.462 167.182 240.501 187.607 251.968C205.86 262.214 238.11 253.296 264.79 225.308C280.334 208.994 278.827 188.251 273.761 168.868C270.626 156.863 268.595 144.619 266.171 132.468Z" fill="#8D83FF"/>
<path opacity="0.7" d="M266.171 132.468C264.548 123.901 262.474 115.425 259.956 107.077C252.386 82.9136 237.32 58.4651 211.444 50.2448C192.341 44.1825 171.724 48.3657 155.582 60.7227C130.264 80.0983 111.838 106.539 84.1354 123.318C61.0083 137.335 48.9036 159.977 56.679 191.982C64.4545 223.987 90.4301 242.632 118.856 240.368C142.481 238.462 167.182 240.501 187.607 251.968C205.86 262.214 238.11 253.296 264.79 225.308C280.334 208.994 278.827 188.251 273.761 168.868C270.626 156.863 268.595 144.619 266.171 132.468Z" fill="white"/>
<path d="M293.096 281.191C293.096 283.262 236.656 284.949 167.056 284.949C97.4553 284.949 41.0087 283.262 41.0087 281.191C41.0087 279.119 97.4487 277.432 167.056 277.432C236.663 277.432 293.096 279.119 293.096 281.191Z" fill="#8D83FF"/>
<path opacity="0.3" d="M293.096 281.191C293.096 283.262 236.656 284.949 167.056 284.949C97.4553 284.949 41.0087 283.262 41.0087 281.191C41.0087 279.119 97.4487 277.432 167.056 277.432C236.663 277.432 293.096 279.119 293.096 281.191Z" fill="white"/>
<path d="M268.967 208.835C268.967 208.868 270.673 207.075 270.766 206.949C271.848 205.501 273.09 202.062 271.915 200.408C271.712 200.14 271.455 199.917 271.161 199.755C270.867 199.592 270.542 199.493 270.207 199.464C269.872 199.435 269.534 199.477 269.216 199.587C268.899 199.697 268.608 199.873 268.362 200.103C267.287 201.046 267.034 202.792 267.127 204.14C267.24 205.72 268.967 208.828 268.967 208.835Z" fill="#8D83FF"/>
<path d="M284.478 202.659C282.818 201.497 279.391 202.766 277.95 203.855C277.824 203.954 276.045 205.654 276.078 205.667H276.118C275.573 205.867 274.996 206.079 274.365 206.331C273.21 206.796 271.908 207.341 270.527 208.018C269.036 208.743 267.586 209.55 266.184 210.435C264.613 211.421 263.133 212.546 261.762 213.795C261.745 213.809 261.729 213.824 261.716 213.841C262.008 213.33 262.785 211.849 262.831 211.743C263.495 210.056 263.781 206.431 262.214 205.136C261.946 204.932 261.638 204.786 261.309 204.708C260.981 204.631 260.641 204.623 260.309 204.686C259.978 204.748 259.664 204.88 259.387 205.072C259.11 205.264 258.876 205.512 258.701 205.8C257.918 206.995 258.13 208.742 258.582 210.017C259.086 211.457 261.377 213.835 261.563 214.001C260.196 215.305 258.918 216.7 257.738 218.177C257.074 219.034 256.377 219.917 255.746 220.833C255.985 220.382 256.198 219.97 256.218 219.91C256.882 218.23 257.167 214.598 255.6 213.303C255.333 213.099 255.025 212.953 254.698 212.876C254.37 212.798 254.03 212.79 253.699 212.853C253.368 212.916 253.055 213.047 252.778 213.239C252.502 213.431 252.269 213.679 252.094 213.967C251.304 215.156 251.523 216.909 251.968 218.177C252.413 219.445 254.339 221.544 254.85 222.081L254.073 223.104C252.878 224.771 251.696 226.424 250.481 228.031C250.056 228.595 249.618 229.14 249.153 229.678C249.365 229.273 249.545 228.934 249.564 228.881C250.228 227.194 250.514 223.569 248.947 222.241C248.679 222.035 248.371 221.889 248.043 221.81C247.715 221.732 247.374 221.724 247.042 221.787C246.711 221.85 246.396 221.982 246.119 222.174C245.842 222.367 245.609 222.616 245.434 222.905C244.644 224.1 244.863 225.846 245.315 227.121C245.766 228.396 247.493 230.282 248.097 230.926C247.632 231.47 247.167 232.008 246.689 232.513C246.357 232.852 246.065 233.177 245.707 233.516L244.691 234.472C244.027 235.056 243.363 235.667 242.666 236.225C242.201 236.616 241.756 236.975 241.338 237.34C241.762 236.789 242.586 235.68 242.666 235.581C243.413 234.176 243.788 232.603 243.754 231.012C243.843 230.86 243.919 230.7 243.98 230.534C244.104 230.221 244.161 229.885 244.147 229.549C244.133 229.212 244.049 228.882 243.899 228.581C243.75 228.279 243.538 228.012 243.279 227.797C243.019 227.582 242.718 227.424 242.393 227.334C240.401 226.849 237.679 229.259 236.729 230.8C236.676 230.893 236.172 231.942 235.873 232.613C235.986 232.194 236.112 231.783 236.225 231.351C236.464 230.494 236.676 229.631 236.889 228.695C236.982 228.243 237.081 227.785 237.181 227.327C237.28 226.869 237.34 226.378 237.427 225.899C237.593 224.784 237.712 223.649 237.812 222.5C238.562 222.706 241.238 223.403 242.579 223.164C243.92 222.925 245.561 222.327 246.238 221.072C246.409 220.782 246.518 220.459 246.556 220.125C246.594 219.79 246.56 219.451 246.458 219.13C246.356 218.809 246.187 218.513 245.963 218.262C245.738 218.011 245.463 217.81 245.156 217.673C243.283 216.889 240.209 218.861 239.033 220.236C238.96 220.322 238.23 221.404 237.838 222.008C237.891 221.344 237.944 220.627 237.978 219.923C238.057 217.931 238.084 215.853 238.117 213.808C238.117 213.184 238.117 212.56 238.157 211.936C238.423 212.009 241.59 212.905 243.09 212.673C244.418 212.473 246.072 211.843 246.756 210.581C246.925 210.29 247.031 209.967 247.068 209.632C247.104 209.298 247.07 208.959 246.967 208.639C246.865 208.319 246.696 208.023 246.472 207.772C246.248 207.521 245.974 207.32 245.667 207.181C243.801 206.404 240.72 208.377 239.545 209.751C239.458 209.851 238.409 211.411 238.157 211.823C238.19 210.448 238.237 209.074 238.336 207.726C238.464 205.904 238.708 204.092 239.067 202.301C239.193 202.301 242.493 203.284 244.033 203.045C245.361 202.845 247.008 202.215 247.692 200.953C247.861 200.663 247.968 200.34 248.005 200.006C248.042 199.671 248.008 199.333 247.906 199.013C247.804 198.692 247.636 198.397 247.413 198.145C247.189 197.894 246.916 197.692 246.61 197.553C244.737 196.776 241.656 198.742 240.488 200.123C240.408 200.209 239.604 201.398 239.239 201.969L239.133 201.929C239.543 200.135 240.115 198.382 240.84 196.69C241.225 195.754 241.643 194.884 242.075 194.034C242.672 194.273 245.395 195.362 246.816 195.282C248.236 195.203 249.87 194.778 250.687 193.603C250.887 193.332 251.029 193.023 251.102 192.695C251.175 192.366 251.179 192.026 251.113 191.696C251.046 191.367 250.911 191.054 250.717 190.78C250.522 190.505 250.272 190.275 249.983 190.103C248.21 189.127 244.93 190.767 243.615 191.982C243.542 192.049 242.891 192.812 242.42 193.377C242.619 193.005 242.818 192.613 243.017 192.255C243.761 190.927 244.518 189.731 245.202 188.689C245.594 188.105 245.959 187.58 246.311 187.089C247.015 187.022 249.87 186.697 251.072 186.013C252.274 185.329 253.548 184.16 253.728 182.739C253.782 182.407 253.766 182.068 253.681 181.742C253.595 181.417 253.441 181.113 253.23 180.851C253.019 180.589 252.755 180.375 252.455 180.222C252.155 180.069 251.826 179.981 251.49 179.964C249.465 179.911 247.307 182.852 246.709 184.559C246.656 184.712 246.112 187.109 246.145 187.102H246.191C245.846 187.545 245.481 188.049 245.096 188.616C244.385 189.645 243.595 190.814 242.825 192.142C241.977 193.566 241.212 195.038 240.534 196.551C239.769 198.242 239.154 199.998 238.695 201.796C238.699 201.818 238.699 201.841 238.695 201.863C238.695 201.272 238.496 199.618 238.469 199.492C238.097 197.726 236.324 194.525 234.312 194.326C233.977 194.301 233.639 194.347 233.322 194.46C233.005 194.574 232.716 194.753 232.473 194.986C232.23 195.219 232.039 195.501 231.912 195.813C231.785 196.125 231.725 196.46 231.736 196.796C231.736 198.224 232.885 199.565 233.96 200.375C235.176 201.298 238.396 202.022 238.655 202.075C238.238 203.92 237.943 205.79 237.772 207.673C237.672 208.768 237.599 209.871 237.539 210.993C237.493 210.481 237.446 210.023 237.433 209.963C237.055 208.191 235.282 204.997 233.27 204.791C232.934 204.766 232.597 204.811 232.28 204.925C231.963 205.039 231.673 205.218 231.43 205.451C231.187 205.684 230.996 205.966 230.869 206.277C230.742 206.589 230.682 206.924 230.694 207.261C230.694 208.689 231.842 210.03 232.918 210.847C233.994 211.663 236.749 212.341 237.473 212.513C237.473 212.938 237.433 213.363 237.42 213.788C237.34 215.833 237.274 217.878 237.148 219.877C237.101 220.581 237.028 221.278 236.962 221.969C236.922 221.517 236.875 221.132 236.869 221.079C236.49 219.306 234.717 216.112 232.706 215.906C232.37 215.881 232.032 215.927 231.715 216.04C231.398 216.154 231.109 216.333 230.866 216.566C230.623 216.799 230.432 217.081 230.305 217.393C230.178 217.705 230.118 218.04 230.129 218.376C230.129 219.811 231.278 221.145 232.354 221.962C233.429 222.779 235.919 223.396 236.776 223.595C236.69 224.306 236.597 225.016 236.477 225.694C236.384 226.158 236.331 226.617 236.211 227.075L235.893 228.403C235.654 229.259 235.421 230.149 235.169 230.979C234.996 231.557 234.824 232.108 234.651 232.666C234.704 231.962 234.777 230.587 234.771 230.468C234.671 228.668 233.403 225.235 231.451 224.731C231.123 224.656 230.783 224.651 230.453 224.715C230.123 224.78 229.811 224.914 229.536 225.107C229.261 225.301 229.03 225.55 228.858 225.839C228.685 226.127 228.576 226.449 228.536 226.783C228.316 228.197 229.246 229.691 230.189 230.66C231.132 231.63 234.173 232.898 234.545 233.044C234.253 233.96 233.967 234.844 233.682 235.7C232.692 238.589 231.763 240.959 231.092 242.606C231.092 242.665 231.046 242.719 231.019 242.772L232.227 243.436C232.267 243.329 232.314 243.223 232.354 243.11C233.018 241.43 233.887 239.013 234.817 236.072C235.116 235.142 235.415 234.146 235.713 233.117C236.727 233.244 237.747 233.311 238.768 233.316C239.133 234.797 240.826 237.227 241.045 237.539C240.302 238.144 239.571 238.728 238.874 239.266C236.457 241.132 234.372 242.586 232.898 243.595L232.725 243.715L234.053 244.445C235.488 243.416 237.373 241.988 239.611 240.209C240.368 239.598 241.172 238.927 241.982 238.217C242.28 238.469 244.704 240.527 246.138 240.939C247.433 241.311 249.193 241.43 250.335 240.574C250.611 240.382 250.843 240.133 251.017 239.845C251.19 239.557 251.302 239.236 251.343 238.902C251.384 238.568 251.355 238.229 251.257 237.908C251.158 237.586 250.994 237.289 250.773 237.035C249.405 235.541 245.786 236.039 244.133 236.796C244.04 236.842 243.044 237.46 242.42 237.832C242.752 237.546 243.084 237.274 243.409 236.975C244.073 236.397 244.737 235.793 245.441 235.142L246.437 234.166C246.776 233.841 247.101 233.462 247.433 233.111C248.19 232.274 248.914 231.391 249.624 230.488C250.142 231.072 251.995 233.144 253.223 233.701C254.452 234.259 256.171 234.644 257.433 233.974C257.734 233.825 258.001 233.614 258.216 233.355C258.43 233.097 258.589 232.796 258.68 232.473C258.771 232.149 258.794 231.81 258.746 231.477C258.698 231.145 258.581 230.826 258.402 230.541C257.274 228.861 253.622 228.801 251.882 229.299C251.769 229.332 250.554 229.83 249.89 230.116C250.308 229.571 250.74 229.027 251.145 228.456C252.333 226.816 253.482 225.136 254.637 223.436L255.706 221.896C255.886 222.101 258.037 224.598 259.418 225.216C260.64 225.78 262.36 226.165 263.621 225.488C263.924 225.34 264.192 225.13 264.408 224.872C264.624 224.614 264.783 224.313 264.875 223.988C264.966 223.664 264.988 223.325 264.939 222.991C264.891 222.658 264.772 222.339 264.591 222.055C263.462 220.375 259.81 220.315 258.07 220.82C257.944 220.853 256.204 221.577 255.773 221.783C256.556 220.654 257.353 219.532 258.183 218.463C259.29 217.01 260.492 215.632 261.782 214.339C261.868 214.439 264.099 217.048 265.507 217.699C266.736 218.27 268.455 218.649 269.717 217.978C270.019 217.83 270.286 217.619 270.502 217.361C270.717 217.102 270.876 216.802 270.967 216.478C271.059 216.154 271.081 215.814 271.033 215.482C270.984 215.149 270.866 214.829 270.686 214.545C269.558 212.859 265.906 212.805 264.166 213.303C264.053 213.337 262.732 213.888 262.107 214.16L262.041 214.06C263.374 212.795 264.816 211.651 266.35 210.641C267.194 210.07 268.024 209.572 268.847 209.114C269.212 209.638 270.905 212.035 272.114 212.766C273.322 213.496 274.936 214.034 276.264 213.503C276.581 213.387 276.871 213.206 277.113 212.972C277.356 212.737 277.546 212.453 277.671 212.14C277.796 211.826 277.854 211.49 277.841 211.153C277.827 210.815 277.742 210.485 277.592 210.183C276.656 208.383 273.03 207.932 271.251 208.237C271.151 208.237 270.182 208.529 269.484 208.742L270.6 208.131C271.961 207.427 273.256 206.856 274.391 206.365C275.055 206.092 275.64 205.853 276.198 205.641C276.828 205.973 279.378 207.281 280.759 207.367C282.14 207.454 283.853 207.188 284.783 206.106C284.996 205.862 285.157 205.578 285.257 205.271C285.357 204.964 285.394 204.639 285.365 204.317C285.337 203.996 285.243 203.683 285.091 203.398C284.938 203.113 284.73 202.862 284.478 202.659V202.659Z" fill="#8D83FF"/>
<path d="M237.838 190.807C238.801 192.069 241.955 193.709 241.962 193.709C241.968 193.709 242.413 191.305 242.42 191.146C242.526 189.34 241.663 185.794 239.764 185.064C239.447 184.951 239.109 184.906 238.773 184.933C238.438 184.959 238.112 185.056 237.816 185.217C237.52 185.378 237.262 185.6 237.057 185.867C236.853 186.135 236.707 186.442 236.63 186.77C236.258 188.145 237.048 189.738 237.838 190.807Z" fill="#8D83FF"/>
<g opacity="0.5">
<path d="M268.967 208.835C268.967 208.868 270.673 207.075 270.766 206.949C271.848 205.501 273.09 202.062 271.915 200.408C271.712 200.14 271.455 199.917 271.161 199.755C270.867 199.592 270.542 199.493 270.207 199.464C269.872 199.435 269.534 199.477 269.216 199.587C268.899 199.697 268.608 199.873 268.362 200.103C267.287 201.046 267.034 202.792 267.127 204.14C267.24 205.72 268.967 208.828 268.967 208.835Z" fill="white"/>
<path d="M284.478 202.659C282.818 201.497 279.391 202.766 277.95 203.855C277.824 203.954 276.045 205.654 276.078 205.667H276.118C275.573 205.867 274.996 206.079 274.365 206.331C273.21 206.796 271.908 207.341 270.527 208.018C269.036 208.743 267.586 209.55 266.184 210.435C264.613 211.421 263.133 212.546 261.762 213.795C261.745 213.809 261.729 213.824 261.716 213.841C262.008 213.33 262.785 211.849 262.831 211.743C263.495 210.056 263.781 206.431 262.214 205.136C261.946 204.932 261.638 204.786 261.309 204.708C260.981 204.631 260.641 204.623 260.309 204.686C259.978 204.748 259.664 204.88 259.387 205.072C259.11 205.264 258.876 205.512 258.701 205.8C257.918 206.995 258.13 208.742 258.582 210.017C259.086 211.457 261.377 213.835 261.563 214.001C260.196 215.305 258.918 216.7 257.738 218.177C257.074 219.034 256.377 219.917 255.746 220.833C255.985 220.382 256.198 219.97 256.218 219.91C256.882 218.23 257.167 214.598 255.6 213.303C255.333 213.099 255.025 212.953 254.698 212.876C254.37 212.798 254.03 212.79 253.699 212.853C253.368 212.916 253.055 213.047 252.778 213.239C252.502 213.431 252.269 213.679 252.094 213.967C251.304 215.156 251.523 216.909 251.968 218.177C252.413 219.445 254.339 221.544 254.85 222.081L254.073 223.104C252.878 224.771 251.696 226.424 250.481 228.031C250.056 228.595 249.618 229.14 249.153 229.678C249.365 229.273 249.545 228.934 249.564 228.881C250.228 227.194 250.514 223.569 248.947 222.241C248.679 222.035 248.371 221.889 248.043 221.81C247.715 221.732 247.374 221.724 247.042 221.787C246.711 221.85 246.396 221.982 246.119 222.174C245.842 222.367 245.609 222.616 245.434 222.905C244.644 224.1 244.863 225.846 245.315 227.121C245.766 228.396 247.493 230.282 248.097 230.926C247.632 231.47 247.167 232.008 246.689 232.513C246.357 232.852 246.065 233.177 245.707 233.516L244.691 234.472C244.027 235.056 243.363 235.667 242.666 236.225C242.201 236.616 241.756 236.975 241.338 237.34C241.762 236.789 242.586 235.68 242.666 235.581C243.413 234.176 243.788 232.603 243.754 231.012C243.843 230.86 243.919 230.7 243.98 230.534C244.104 230.221 244.161 229.885 244.147 229.549C244.133 229.212 244.049 228.882 243.899 228.581C243.75 228.279 243.538 228.012 243.279 227.797C243.019 227.582 242.718 227.424 242.393 227.334C240.401 226.849 237.679 229.259 236.729 230.8C236.676 230.893 236.172 231.942 235.873 232.613C235.986 232.194 236.112 231.783 236.225 231.351C236.464 230.494 236.676 229.631 236.889 228.695C236.982 228.243 237.081 227.785 237.181 227.327C237.28 226.869 237.34 226.378 237.427 225.899C237.593 224.784 237.712 223.649 237.812 222.5C238.562 222.706 241.238 223.403 242.579 223.164C243.92 222.925 245.561 222.327 246.238 221.072C246.409 220.782 246.518 220.459 246.556 220.125C246.594 219.79 246.56 219.451 246.458 219.13C246.356 218.809 246.187 218.513 245.963 218.262C245.738 218.011 245.463 217.81 245.156 217.673C243.283 216.889 240.209 218.861 239.033 220.236C238.96 220.322 238.23 221.404 237.838 222.008C237.891 221.344 237.944 220.627 237.978 219.923C238.057 217.931 238.084 215.853 238.117 213.808C238.117 213.184 238.117 212.56 238.157 211.936C238.423 212.009 241.59 212.905 243.09 212.673C244.418 212.473 246.072 211.843 246.756 210.581C246.925 210.29 247.031 209.967 247.068 209.632C247.104 209.298 247.07 208.959 246.967 208.639C246.865 208.319 246.696 208.023 246.472 207.772C246.248 207.521 245.974 207.32 245.667 207.181C243.801 206.404 240.72 208.377 239.545 209.751C239.458 209.851 238.409 211.411 238.157 211.823C238.19 210.448 238.237 209.074 238.336 207.726C238.464 205.904 238.708 204.092 239.067 202.301C239.193 202.301 242.493 203.284 244.033 203.045C245.361 202.845 247.008 202.215 247.692 200.953C247.861 200.663 247.968 200.34 248.005 200.006C248.042 199.671 248.008 199.333 247.906 199.013C247.804 198.692 247.636 198.397 247.413 198.145C247.189 197.894 246.916 197.692 246.61 197.553C244.737 196.776 241.656 198.742 240.488 200.123C240.408 200.209 239.604 201.398 239.239 201.969L239.133 201.929C239.543 200.135 240.115 198.382 240.84 196.69C241.225 195.754 241.643 194.884 242.075 194.034C242.672 194.273 245.395 195.362 246.816 195.282C248.236 195.203 249.87 194.778 250.687 193.603C250.887 193.332 251.029 193.023 251.102 192.695C251.175 192.366 251.179 192.026 251.113 191.696C251.046 191.367 250.911 191.054 250.717 190.78C250.522 190.505 250.272 190.275 249.983 190.103C248.21 189.127 244.93 190.767 243.615 191.982C243.542 192.049 242.891 192.812 242.42 193.377C242.619 193.005 242.818 192.613 243.017 192.255C243.761 190.927 244.518 189.731 245.202 188.689C245.594 188.105 245.959 187.58 246.311 187.089C247.015 187.022 249.87 186.697 251.072 186.013C252.274 185.329 253.548 184.16 253.728 182.739C253.782 182.407 253.766 182.068 253.681 181.742C253.595 181.417 253.441 181.113 253.23 180.851C253.019 180.589 252.755 180.375 252.455 180.222C252.155 180.069 251.826 179.981 251.49 179.964C249.465 179.911 247.307 182.852 246.709 184.559C246.656 184.712 246.112 187.109 246.145 187.102H246.191C245.846 187.545 245.481 188.049 245.096 188.616C244.385 189.645 243.595 190.814 242.825 192.142C241.977 193.566 241.212 195.038 240.534 196.551C239.769 198.242 239.154 199.998 238.695 201.796C238.699 201.818 238.699 201.841 238.695 201.863C238.695 201.272 238.496 199.618 238.469 199.492C238.097 197.726 236.324 194.525 234.312 194.326C233.977 194.301 233.639 194.347 233.322 194.46C233.005 194.574 232.716 194.753 232.473 194.986C232.23 195.219 232.039 195.501 231.912 195.813C231.785 196.125 231.725 196.46 231.736 196.796C231.736 198.224 232.885 199.565 233.96 200.375C235.176 201.298 238.396 202.022 238.655 202.075C238.238 203.92 237.943 205.79 237.772 207.673C237.672 208.768 237.599 209.871 237.539 210.993C237.493 210.481 237.446 210.023 237.433 209.963C237.055 208.191 235.282 204.997 233.27 204.791C232.934 204.766 232.597 204.811 232.28 204.925C231.963 205.039 231.673 205.218 231.43 205.451C231.187 205.684 230.996 205.966 230.869 206.277C230.742 206.589 230.682 206.924 230.694 207.261C230.694 208.689 231.842 210.03 232.918 210.847C233.994 211.663 236.749 212.341 237.473 212.513C237.473 212.938 237.433 213.363 237.42 213.788C237.34 215.833 237.274 217.878 237.148 219.877C237.101 220.581 237.028 221.278 236.962 221.969C236.922 221.517 236.875 221.132 236.869 221.079C236.49 219.306 234.717 216.112 232.706 215.906C232.37 215.881 232.032 215.927 231.715 216.04C231.398 216.154 231.109 216.333 230.866 216.566C230.623 216.799 230.432 217.081 230.305 217.393C230.178 217.705 230.118 218.04 230.129 218.376C230.129 219.811 231.278 221.145 232.354 221.962C233.429 222.779 235.919 223.396 236.776 223.595C236.69 224.306 236.597 225.016 236.477 225.694C236.384 226.158 236.331 226.617 236.211 227.075L235.893 228.403C235.654 229.259 235.421 230.149 235.169 230.979C234.996 231.557 234.824 232.108 234.651 232.666C234.704 231.962 234.777 230.587 234.771 230.468C234.671 228.668 233.403 225.235 231.451 224.731C231.123 224.656 230.783 224.651 230.453 224.715C230.123 224.78 229.811 224.914 229.536 225.107C229.261 225.301 229.03 225.55 228.858 225.839C228.685 226.127 228.576 226.449 228.536 226.783C228.316 228.197 229.246 229.691 230.189 230.66C231.132 231.63 234.173 232.898 234.545 233.044C234.253 233.96 233.967 234.844 233.682 235.7C232.692 238.589 231.763 240.959 231.092 242.606C231.092 242.665 231.046 242.719 231.019 242.772L232.227 243.436C232.267 243.329 232.314 243.223 232.354 243.11C233.018 241.43 233.887 239.013 234.817 236.072C235.116 235.142 235.415 234.146 235.713 233.117C236.727 233.244 237.747 233.311 238.768 233.316C239.133 234.797 240.826 237.227 241.045 237.539C240.302 238.144 239.571 238.728 238.874 239.266C236.457 241.132 234.372 242.586 232.898 243.595L232.725 243.715L234.053 244.445C235.488 243.416 237.373 241.988 239.611 240.209C240.368 239.598 241.172 238.927 241.982 238.217C242.28 238.469 244.704 240.527 246.138 240.939C247.433 241.311 249.193 241.43 250.335 240.574C250.611 240.382 250.843 240.133 251.017 239.845C251.19 239.557 251.302 239.236 251.343 238.902C251.384 238.568 251.355 238.229 251.257 237.908C251.158 237.586 250.994 237.289 250.773 237.035C249.405 235.541 245.786 236.039 244.133 236.796C244.04 236.842 243.044 237.46 242.42 237.832C242.752 237.546 243.084 237.274 243.409 236.975C244.073 236.397 244.737 235.793 245.441 235.142L246.437 234.166C246.776 233.841 247.101 233.462 247.433 233.111C248.19 232.274 248.914 231.391 249.624 230.488C250.142 231.072 251.995 233.144 253.223 233.701C254.452 234.259 256.171 234.644 257.433 233.974C257.734 233.825 258.001 233.614 258.216 233.355C258.43 233.097 258.589 232.796 258.68 232.473C258.771 232.149 258.794 231.81 258.746 231.477C258.698 231.145 258.581 230.826 258.402 230.541C257.274 228.861 253.622 228.801 251.882 229.299C251.769 229.332 250.554 229.83 249.89 230.116C250.308 229.571 250.74 229.027 251.145 228.456C252.333 226.816 253.482 225.136 254.637 223.436L255.706 221.896C255.886 222.101 258.037 224.598 259.418 225.216C260.64 225.78 262.36 226.165 263.621 225.488C263.924 225.34 264.192 225.13 264.408 224.872C264.624 224.614 264.783 224.313 264.875 223.988C264.966 223.664 264.988 223.325 264.939 222.991C264.891 222.658 264.772 222.339 264.591 222.055C263.462 220.375 259.81 220.315 258.07 220.82C257.944 220.853 256.204 221.577 255.773 221.783C256.556 220.654 257.353 219.532 258.183 218.463C259.29 217.01 260.492 215.632 261.782 214.339C261.868 214.439 264.099 217.048 265.507 217.699C266.736 218.27 268.455 218.649 269.717 217.978C270.019 217.83 270.286 217.619 270.502 217.361C270.717 217.102 270.876 216.802 270.967 216.478C271.059 216.154 271.081 215.814 271.033 215.482C270.984 215.149 270.866 214.829 270.686 214.545C269.558 212.859 265.906 212.805 264.166 213.303C264.053 213.337 262.732 213.888 262.107 214.16L262.041 214.06C263.374 212.795 264.816 211.651 266.35 210.641C267.194 210.07 268.024 209.572 268.847 209.114C269.212 209.638 270.905 212.035 272.114 212.766C273.322 213.496 274.936 214.034 276.264 213.503C276.581 213.387 276.871 213.206 277.113 212.972C277.356 212.737 277.546 212.453 277.671 212.14C277.796 211.826 277.854 211.49 277.841 211.153C277.827 210.815 277.742 210.485 277.592 210.183C276.656 208.383 273.03 207.932 271.251 208.237C271.151 208.237 270.182 208.529 269.484 208.742L270.6 208.131C271.961 207.427 273.256 206.856 274.391 206.365C275.055 206.092 275.64 205.853 276.198 205.641C276.828 205.973 279.378 207.281 280.759 207.367C282.14 207.454 283.853 207.188 284.783 206.106C284.996 205.862 285.157 205.578 285.257 205.271C285.357 204.964 285.394 204.639 285.365 204.317C285.337 203.996 285.243 203.683 285.091 203.398C284.938 203.113 284.73 202.862 284.478 202.659V202.659Z" fill="white"/>
<path d="M237.838 190.807C238.801 192.069 241.955 193.709 241.962 193.709C241.968 193.709 242.413 191.305 242.42 191.146C242.526 189.34 241.663 185.794 239.764 185.064C239.447 184.951 239.109 184.906 238.773 184.933C238.438 184.959 238.112 185.056 237.816 185.217C237.52 185.378 237.262 185.6 237.057 185.867C236.853 186.135 236.707 186.442 236.63 186.77C236.258 188.145 237.048 189.738 237.838 190.807Z" fill="white"/>
</g>
<path d="M108.232 157.235C108.272 157.235 107.714 154.453 107.654 154.287C106.99 152.295 104.6 148.836 102.263 148.842C101.874 148.854 101.493 148.948 101.143 149.117C100.794 149.286 100.484 149.527 100.233 149.824C99.9827 150.121 99.7975 150.467 99.6896 150.84C99.5816 151.213 99.5533 151.605 99.6066 151.99C99.7793 153.63 101.253 155.031 102.588 155.834C104.142 156.784 108.232 157.235 108.232 157.235Z" fill="#8D83FF"/>
<path d="M112.754 138.504C110.549 139.294 109.434 143.371 109.527 145.456C109.527 145.635 109.945 148.444 109.985 148.424H110.031C109.852 149.088 109.673 149.752 109.487 150.516C109.155 151.917 108.823 153.504 108.518 155.257C108.202 157.145 107.994 159.049 107.893 160.96C107.777 163.098 107.85 165.243 108.112 167.368C108.116 167.394 108.116 167.421 108.112 167.448C107.827 166.823 106.964 165.117 106.877 164.991C105.735 163.244 102.495 160.542 100.237 161.166C99.8665 161.281 99.5237 161.472 99.2313 161.728C98.939 161.984 98.7035 162.298 98.5402 162.65C98.3768 163.002 98.2892 163.385 98.2831 163.774C98.2769 164.162 98.3523 164.547 98.5044 164.904C99.102 166.438 100.895 167.401 102.395 167.826C104.089 168.311 107.86 167.74 108.159 167.693C108.478 169.851 108.942 171.985 109.547 174.081C109.892 175.303 110.277 176.524 110.682 177.746C110.417 177.215 110.171 176.744 110.131 176.684C108.982 174.937 105.749 172.235 103.491 172.859C103.12 172.972 102.776 173.163 102.483 173.417C102.191 173.672 101.955 173.986 101.791 174.338C101.628 174.69 101.54 175.073 101.534 175.461C101.529 175.849 101.605 176.234 101.758 176.591C102.356 178.131 104.148 179.094 105.649 179.519C107.15 179.944 110.39 179.519 111.247 179.406C111.406 179.871 111.559 180.342 111.718 180.807C112.488 183.038 113.272 185.269 113.969 187.447C114.215 188.224 114.427 189.001 114.633 189.771C114.394 189.3 114.195 188.908 114.155 188.855C113.013 187.109 109.772 184.406 107.515 185.03C107.144 185.143 106.8 185.334 106.507 185.588C106.214 185.843 105.978 186.157 105.815 186.509C105.651 186.861 105.564 187.244 105.558 187.632C105.553 188.02 105.629 188.405 105.782 188.762C106.379 190.302 108.172 191.265 109.673 191.69C111.174 192.115 114.102 191.743 115.118 191.597C115.317 192.401 115.516 193.198 115.669 193.981C115.768 194.519 115.895 195.03 115.961 195.581C116.027 196.132 116.107 196.65 116.187 197.175C116.293 198.197 116.406 199.253 116.486 200.256C116.545 200.92 116.585 201.584 116.632 202.248C116.399 201.471 115.901 199.957 115.848 199.837C115.021 198.196 113.789 196.793 112.269 195.761C112.184 195.574 112.082 195.396 111.964 195.229C111.753 194.902 111.477 194.623 111.151 194.41C110.826 194.197 110.46 194.054 110.076 193.992C109.693 193.929 109.3 193.948 108.924 194.047C108.548 194.145 108.197 194.322 107.893 194.565C106.127 196.099 106.565 200.289 107.382 202.215C107.429 202.327 108.093 203.496 108.518 204.207C108.199 203.815 107.9 203.43 107.568 203.025C106.904 202.235 106.24 201.458 105.523 200.621L104.427 199.432C104.069 199.027 103.644 198.649 103.245 198.251C102.316 197.347 101.32 196.478 100.304 195.595C100.968 195.023 103.438 192.939 104.142 191.564C104.846 190.19 105.337 188.198 104.607 186.717C104.447 186.363 104.214 186.046 103.924 185.788C103.634 185.53 103.292 185.336 102.922 185.219C102.552 185.102 102.161 185.064 101.775 185.108C101.389 185.152 101.017 185.277 100.682 185.475C98.6903 186.717 98.5044 190.927 99.0157 192.952C99.0489 193.078 99.5801 194.486 99.8855 195.256C99.268 194.751 98.6571 194.24 98.0197 193.742C96.1671 192.314 94.2548 190.927 92.3491 189.532C91.7648 189.107 91.1871 188.669 90.6095 188.244C90.8618 188.038 93.8166 185.654 94.5935 184.087C95.2907 182.693 95.7953 180.721 95.0649 179.24C94.9052 178.886 94.6726 178.57 94.3823 178.312C94.092 178.054 93.7506 177.86 93.3803 177.742C93.0099 177.625 92.619 177.587 92.2331 177.632C91.8472 177.676 91.475 177.801 91.1407 177.999C89.1487 179.24 88.9561 183.45 89.474 185.475C89.474 185.628 90.2775 187.66 90.4966 188.164C89.2217 187.215 87.9667 186.259 86.7583 185.263C85.1187 183.929 83.5662 182.492 82.1103 180.96C82.2298 180.867 85.324 178.39 86.0943 176.783C86.7915 175.389 87.2961 173.417 86.5657 171.936C86.406 171.582 86.1734 171.266 85.8831 171.008C85.5928 170.75 85.2514 170.556 84.8811 170.438C84.5107 170.321 84.1198 170.283 83.7339 170.328C83.348 170.372 82.9758 170.497 82.6415 170.695C80.6495 171.936 80.4569 176.146 80.9748 178.171C80.9748 178.304 81.5923 179.851 81.8845 180.581L81.7716 180.648C80.355 179.066 79.0838 177.359 77.9735 175.548C77.3494 174.566 76.8115 173.556 76.3069 172.62C76.9244 172.215 79.7597 170.349 80.6428 168.981C81.5259 167.614 82.2032 165.768 81.6388 164.221C81.5189 163.851 81.3226 163.511 81.0626 163.222C80.8025 162.933 80.4846 162.702 80.1295 162.544C79.7744 162.387 79.39 162.305 79.0014 162.306C78.6128 162.306 78.2286 162.389 77.8739 162.547C75.7691 163.57 75.1117 167.733 75.3972 169.798C75.3972 169.911 75.696 171.04 75.9151 171.857C75.696 171.418 75.4636 170.967 75.2511 170.529C74.4809 168.935 73.8767 167.434 73.3455 166.093C73.0533 165.329 72.8076 164.639 72.5819 163.981C72.9869 163.271 74.5739 160.369 74.7332 158.782C74.8926 157.195 74.6469 155.21 73.4052 154.095C73.1284 153.822 72.7973 153.611 72.4336 153.475C72.0698 153.339 71.6815 153.281 71.2939 153.305C70.9063 153.329 70.528 153.434 70.1836 153.613C69.8393 153.793 69.5365 154.043 69.2951 154.347C67.9007 156.219 69.2353 160.223 70.4438 161.923C70.5434 162.069 72.4358 164.187 72.4358 164.147V164.101C72.6416 164.765 72.8674 165.429 73.0998 166.146C73.5978 167.474 74.1755 169.021 74.9125 170.635C75.6855 172.385 76.5613 174.088 77.5353 175.734C78.6199 177.583 79.8641 179.334 81.2537 180.967L81.3068 181.02C80.7225 180.661 79.0625 179.692 78.9231 179.652C77.0041 178.829 72.8143 178.364 71.2738 180.123C71.0272 180.424 70.8466 180.773 70.7435 181.148C70.6405 181.523 70.6173 181.915 70.6755 182.299C70.7337 182.684 70.872 183.051 71.0815 183.379C71.2909 183.706 71.5668 183.986 71.8913 184.2C73.2193 185.15 75.2644 184.964 76.7451 184.492C78.4251 183.961 81.2537 181.405 81.4795 181.172C82.9262 182.794 84.479 184.318 86.1275 185.734C87.0903 186.564 88.0863 187.374 89.0955 188.164L88.0531 187.58C86.1341 186.757 81.9443 186.292 80.4038 188.058C80.1571 188.358 79.9761 188.706 79.8726 189.08C79.769 189.454 79.7453 189.846 79.8029 190.229C79.8605 190.613 79.9982 190.981 80.2069 191.308C80.4157 191.635 80.6909 191.914 81.0147 192.128C82.3427 193.085 84.3878 192.892 85.8751 192.421C87.3625 191.949 89.8591 189.818 90.4833 189.24L91.6519 190.15C93.5311 191.584 95.4102 193.012 97.2096 194.466C97.8404 194.977 98.4447 195.508 99.0555 196.033C98.5974 195.774 98.2123 195.555 98.1459 195.528C96.2335 194.705 92.0371 194.24 90.5032 196C90.2564 196.3 90.0753 196.648 89.9717 197.023C89.8681 197.397 89.8444 197.79 89.902 198.174C89.9596 198.558 90.0972 198.926 90.306 199.254C90.5148 199.582 90.7901 199.862 91.1141 200.077C92.4421 201.026 94.4872 200.84 95.9746 200.369C97.4619 199.897 99.6996 197.965 100.463 197.288C101.074 197.845 101.678 198.403 102.243 198.974C102.621 199.366 103.006 199.725 103.365 200.143L104.434 201.351C105.098 202.148 105.762 202.965 106.379 203.755C106.811 204.3 107.216 204.831 107.621 205.362C106.997 204.844 105.749 203.855 105.629 203.788C103.856 202.679 99.7859 201.584 97.9998 203.124C97.7102 203.383 97.4786 203.701 97.3201 204.055C97.1615 204.41 97.0795 204.794 97.0795 205.183C97.0795 205.571 97.1615 205.955 97.3201 206.31C97.4786 206.665 97.7102 206.982 97.9998 207.241C99.1883 208.39 101.22 208.509 102.761 208.27C104.454 208.005 107.528 205.999 107.907 205.747C108.571 206.63 109.235 207.493 109.812 208.323C111.884 211.179 113.498 213.635 114.6 215.368L114.713 215.548L116.14 214.851L115.914 214.512C114.759 212.785 113.079 210.335 110.928 207.5C110.264 206.597 109.514 205.654 108.743 204.691C109.534 203.818 110.274 202.9 110.961 201.942C112.601 202.606 116.027 202.606 116.466 202.606C116.539 203.715 116.598 204.791 116.638 205.807C116.784 209.326 116.778 212.268 116.738 214.326V214.565L118.305 213.801C118.305 211.756 118.232 209.001 118.019 205.734C117.953 204.612 117.86 203.41 117.747 202.181C118.185 202.075 121.731 201.159 123.059 200.09C124.274 199.114 125.556 197.533 125.516 195.887C125.519 195.498 125.44 195.113 125.284 194.756C125.128 194.4 124.899 194.081 124.611 193.819C124.324 193.557 123.984 193.359 123.615 193.237C123.246 193.115 122.855 193.072 122.468 193.111C120.151 193.41 118.205 197.148 117.82 199.207C117.82 199.326 117.701 200.668 117.648 201.511C117.601 201.013 117.561 200.521 117.508 200.003C117.402 198.988 117.269 197.965 117.13 196.876L116.871 195.276C116.798 194.745 116.652 194.193 116.539 193.642C116.26 192.367 115.914 191.099 115.536 189.818C116.426 189.731 119.6 189.353 120.961 188.576C122.322 187.799 123.816 186.431 124.022 184.791C124.084 184.408 124.065 184.015 123.965 183.64C123.865 183.264 123.687 182.914 123.443 182.612C123.198 182.31 122.893 182.063 122.546 181.887C122.2 181.711 121.82 181.61 121.432 181.591C119.095 181.531 116.605 184.911 115.921 186.903C115.875 187.022 115.543 188.496 115.37 189.306C115.138 188.543 114.912 187.779 114.653 187.009C113.896 184.798 113.066 182.587 112.243 180.369L111.506 178.337C111.824 178.304 115.609 177.945 117.13 177.069C118.458 176.292 119.985 174.924 120.191 173.291C120.253 172.907 120.233 172.514 120.133 172.138C120.034 171.763 119.856 171.412 119.612 171.109C119.367 170.807 119.062 170.559 118.716 170.382C118.369 170.206 117.989 170.104 117.601 170.084C115.264 170.031 112.774 173.404 112.09 175.396C112.037 175.548 111.559 177.66 111.459 178.204C110.921 176.71 110.397 175.216 109.945 173.722C109.315 171.71 108.818 169.658 108.458 167.58C108.604 167.58 112.555 167.209 114.115 166.312C115.443 165.535 116.97 164.167 117.176 162.527C117.237 162.144 117.217 161.752 117.117 161.377C117.016 161.002 116.838 160.652 116.594 160.35C116.35 160.048 116.045 159.801 115.699 159.625C115.353 159.449 114.974 159.347 114.586 159.327C112.249 159.267 109.759 162.647 109.075 164.639C109.029 164.772 108.664 166.379 108.504 167.149H108.371C108.067 165.047 107.949 162.923 108.02 160.801C108.02 159.632 108.132 158.517 108.239 157.434C108.982 157.434 112.375 157.434 113.863 156.77C115.35 156.106 116.944 154.958 117.329 153.351C117.433 152.976 117.456 152.584 117.398 152.2C117.34 151.815 117.202 151.447 116.992 151.12C116.782 150.793 116.505 150.514 116.18 150.301C115.855 150.088 115.488 149.946 115.104 149.885C112.787 149.566 109.938 152.68 109.042 154.533C108.989 154.639 108.61 155.735 108.338 156.525C108.398 156.033 108.451 155.529 108.511 155.064C108.75 153.311 109.075 151.744 109.374 150.316C109.553 149.52 109.726 148.802 109.899 148.132C110.629 147.76 113.564 146.226 114.547 144.978C115.529 143.729 116.439 141.95 116.041 140.33C115.823 139.668 115.364 139.112 114.755 138.773C114.145 138.435 113.431 138.339 112.754 138.504V138.504Z" fill="#8D83FF"/>
<path d="M70.4836 174.546C72.3096 174.473 75.9616 172.6 75.9683 172.6C75.9749 172.6 73.9763 170.568 73.8568 170.455C72.2233 169.127 68.3057 167.6 66.3602 168.888C66.0419 169.112 65.7742 169.4 65.5748 169.733C65.3753 170.067 65.2486 170.439 65.2028 170.825C65.1571 171.211 65.1934 171.603 65.3093 171.974C65.4252 172.345 65.6181 172.687 65.8755 172.979C66.9246 174.26 68.9232 174.632 70.4836 174.546Z" fill="#8D83FF"/>
<g opacity="0.5">
<path d="M108.232 157.235C108.272 157.235 107.714 154.453 107.654 154.287C106.99 152.295 104.6 148.836 102.263 148.842C101.874 148.854 101.493 148.948 101.144 149.117C100.794 149.286 100.484 149.527 100.233 149.824C99.9828 150.121 99.7976 150.467 99.6896 150.84C99.5817 151.213 99.5534 151.605 99.6067 151.99C99.7793 153.63 101.253 155.031 102.588 155.834C104.142 156.784 108.232 157.235 108.232 157.235Z" fill="white"/>
<path d="M112.754 138.504C110.549 139.294 109.434 143.371 109.527 145.456C109.527 145.635 109.945 148.444 109.985 148.424H110.031C109.852 149.088 109.673 149.752 109.487 150.516C109.155 151.917 108.823 153.504 108.518 155.257C108.202 157.145 107.994 159.049 107.893 160.96C107.777 163.098 107.85 165.243 108.112 167.368C108.116 167.394 108.116 167.421 108.112 167.448C107.827 166.823 106.964 165.117 106.877 164.991C105.735 163.244 102.495 160.542 100.237 161.166C99.8665 161.281 99.5237 161.472 99.2313 161.728C98.939 161.984 98.7035 162.298 98.5402 162.65C98.3768 163.002 98.2892 163.385 98.2831 163.774C98.2769 164.162 98.3523 164.547 98.5044 164.904C99.102 166.438 100.895 167.401 102.395 167.826C104.089 168.311 107.86 167.74 108.159 167.693C108.478 169.851 108.942 171.985 109.547 174.081C109.892 175.303 110.277 176.524 110.682 177.746C110.417 177.215 110.171 176.744 110.131 176.684C108.982 174.937 105.749 172.235 103.491 172.859C103.12 172.972 102.776 173.163 102.483 173.417C102.191 173.672 101.955 173.986 101.791 174.338C101.628 174.69 101.54 175.073 101.534 175.461C101.529 175.849 101.605 176.234 101.758 176.591C102.356 178.131 104.148 179.094 105.649 179.519C107.15 179.944 110.39 179.519 111.247 179.406C111.406 179.871 111.559 180.342 111.718 180.807C112.488 183.038 113.272 185.269 113.969 187.447C114.215 188.224 114.427 189.001 114.633 189.771C114.394 189.3 114.195 188.908 114.155 188.855C113.013 187.109 109.772 184.406 107.515 185.03C107.144 185.143 106.8 185.334 106.507 185.588C106.214 185.843 105.978 186.157 105.815 186.509C105.651 186.861 105.564 187.244 105.558 187.632C105.553 188.02 105.629 188.405 105.782 188.762C106.379 190.302 108.172 191.265 109.673 191.69C111.174 192.115 114.102 191.743 115.118 191.597C115.317 192.401 115.516 193.198 115.669 193.981C115.768 194.519 115.895 195.03 115.961 195.581C116.027 196.132 116.107 196.65 116.187 197.175C116.293 198.197 116.406 199.253 116.486 200.256C116.545 200.92 116.585 201.584 116.632 202.248C116.399 201.471 115.901 199.957 115.848 199.837C115.021 198.196 113.789 196.793 112.269 195.761C112.184 195.574 112.082 195.396 111.964 195.229C111.753 194.902 111.477 194.623 111.151 194.41C110.826 194.197 110.46 194.054 110.076 193.992C109.693 193.929 109.3 193.948 108.924 194.047C108.548 194.145 108.197 194.322 107.893 194.565C106.127 196.099 106.565 200.289 107.382 202.215C107.429 202.327 108.093 203.496 108.518 204.207C108.199 203.815 107.9 203.43 107.568 203.025C106.904 202.235 106.24 201.458 105.523 200.621L104.427 199.432C104.069 199.027 103.644 198.649 103.245 198.251C102.316 197.347 101.32 196.478 100.304 195.595C100.968 195.023 103.438 192.939 104.142 191.564C104.846 190.19 105.337 188.198 104.607 186.717C104.447 186.363 104.214 186.046 103.924 185.788C103.634 185.53 103.292 185.336 102.922 185.219C102.552 185.102 102.161 185.064 101.775 185.108C101.389 185.152 101.017 185.277 100.682 185.475C98.6903 186.717 98.5044 190.927 99.0157 192.952C99.0489 193.078 99.5801 194.486 99.8855 195.256C99.268 194.751 98.6571 194.24 98.0197 193.742C96.1671 192.314 94.2548 190.927 92.3491 189.532C91.7648 189.107 91.1871 188.669 90.6095 188.244C90.8618 188.038 93.8166 185.654 94.5935 184.087C95.2907 182.693 95.7953 180.721 95.0649 179.24C94.9052 178.886 94.6726 178.57 94.3823 178.312C94.092 178.054 93.7506 177.86 93.3803 177.742C93.0099 177.625 92.619 177.587 92.2331 177.632C91.8472 177.676 91.475 177.801 91.1407 177.999C89.1487 179.24 88.9561 183.45 89.474 185.475C89.474 185.628 90.2775 187.66 90.4966 188.164C89.2217 187.215 87.9667 186.259 86.7583 185.263C85.1187 183.929 83.5662 182.492 82.1103 180.96C82.2298 180.867 85.324 178.39 86.0943 176.783C86.7915 175.389 87.2961 173.417 86.5657 171.936C86.406 171.582 86.1734 171.266 85.8831 171.008C85.5928 170.75 85.2514 170.556 84.8811 170.438C84.5107 170.321 84.1198 170.283 83.7339 170.328C83.348 170.372 82.9758 170.497 82.6415 170.695C80.6495 171.936 80.4569 176.146 80.9748 178.171C80.9748 178.304 81.5923 179.851 81.8845 180.581L81.7716 180.648C80.355 179.066 79.0838 177.359 77.9735 175.548C77.3494 174.566 76.8115 173.556 76.3069 172.62C76.9244 172.215 79.7597 170.349 80.6428 168.981C81.5259 167.614 82.2032 165.768 81.6388 164.221C81.5189 163.851 81.3226 163.511 81.0626 163.222C80.8025 162.933 80.4846 162.702 80.1295 162.544C79.7744 162.387 79.39 162.305 79.0014 162.306C78.6128 162.306 78.2286 162.389 77.8739 162.547C75.7691 163.57 75.1117 167.733 75.3972 169.798C75.3972 169.911 75.696 171.04 75.9151 171.857C75.696 171.418 75.4636 170.967 75.2511 170.529C74.4809 168.935 73.8767 167.434 73.3455 166.093C73.0533 165.329 72.8076 164.639 72.5819 163.981C72.9869 163.271 74.5739 160.369 74.7332 158.782C74.8926 157.195 74.6469 155.21 73.4052 154.095C73.1284 153.822 72.7973 153.611 72.4336 153.475C72.0698 153.339 71.6815 153.281 71.2939 153.305C70.9063 153.329 70.528 153.434 70.1836 153.613C69.8393 153.793 69.5365 154.043 69.2951 154.347C67.9007 156.219 69.2353 160.223 70.4438 161.923C70.5434 162.069 72.4358 164.187 72.4358 164.147V164.101C72.6416 164.765 72.8674 165.429 73.0998 166.146C73.5978 167.474 74.1755 169.021 74.9125 170.635C75.6855 172.385 76.5613 174.088 77.5353 175.734C78.6199 177.583 79.8641 179.334 81.2537 180.967L81.3068 181.02C80.7225 180.661 79.0625 179.692 78.9231 179.652C77.0041 178.829 72.8143 178.364 71.2738 180.123C71.0272 180.424 70.8466 180.773 70.7435 181.148C70.6405 181.523 70.6173 181.915 70.6755 182.299C70.7337 182.684 70.872 183.051 71.0815 183.379C71.2909 183.706 71.5668 183.986 71.8913 184.2C73.2193 185.15 75.2644 184.964 76.7451 184.492C78.4251 183.961 81.2537 181.405 81.4795 181.172C82.9262 182.794 84.479 184.318 86.1275 185.734C87.0903 186.564 88.0863 187.374 89.0955 188.164L88.0531 187.58C86.1341 186.757 81.9443 186.292 80.4038 188.058C80.1571 188.358 79.9761 188.706 79.8726 189.08C79.769 189.454 79.7453 189.846 79.8029 190.229C79.8605 190.613 79.9982 190.981 80.2069 191.308C80.4157 191.635 80.6909 191.914 81.0147 192.128C82.3427 193.085 84.3878 192.892 85.8751 192.421C87.3625 191.949 89.8591 189.818 90.4833 189.24L91.6519 190.15C93.5311 191.584 95.4102 193.012 97.2096 194.466C97.8404 194.977 98.4447 195.508 99.0555 196.033C98.5974 195.774 98.2123 195.555 98.1459 195.528C96.2335 194.705 92.0371 194.24 90.5032 196C90.2564 196.3 90.0753 196.648 89.9717 197.023C89.8681 197.397 89.8444 197.79 89.902 198.174C89.9596 198.558 90.0972 198.926 90.306 199.254C90.5148 199.582 90.7901 199.862 91.1141 200.077C92.4421 201.026 94.4872 200.84 95.9746 200.369C97.4619 199.897 99.6996 197.965 100.463 197.288C101.074 197.845 101.678 198.403 102.243 198.974C102.621 199.366 103.006 199.725 103.365 200.143L104.434 201.351C105.098 202.148 105.762 202.965 106.379 203.755C106.811 204.3 107.216 204.831 107.621 205.362C106.997 204.844 105.749 203.855 105.629 203.788C103.856 202.679 99.7859 201.584 97.9998 203.124C97.7102 203.383 97.4786 203.701 97.3201 204.055C97.1615 204.41 97.0795 204.794 97.0795 205.183C97.0795 205.571 97.1615 205.955 97.3201 206.31C97.4786 206.665 97.7102 206.982 97.9998 207.241C99.1883 208.39 101.22 208.509 102.761 208.27C104.454 208.005 107.528 205.999 107.907 205.747C108.571 206.63 109.235 207.493 109.812 208.323C111.884 211.179 113.498 213.635 114.6 215.368L114.713 215.548L116.14 214.851L115.914 214.512C114.759 212.785 113.079 210.335 110.928 207.5C110.264 206.597 109.514 205.654 108.743 204.691C109.534 203.818 110.274 202.9 110.961 201.942C112.601 202.606 116.027 202.606 116.466 202.606C116.539 203.715 116.598 204.791 116.638 205.807C116.784 209.326 116.778 212.268 116.738 214.326V214.565L118.305 213.801C118.305 211.756 118.232 209.001 118.019 205.734C117.953 204.612 117.86 203.41 117.747 202.181C118.185 202.075 121.731 201.159 123.059 200.09C124.274 199.114 125.556 197.533 125.516 195.887C125.519 195.498 125.44 195.113 125.284 194.756C125.128 194.4 124.899 194.081 124.611 193.819C124.324 193.557 123.984 193.359 123.615 193.237C123.246 193.115 122.855 193.072 122.468 193.111C120.151 193.41 118.205 197.148 117.82 199.207C117.82 199.326 117.701 200.668 117.648 201.511C117.601 201.013 117.561 200.521 117.508 200.003C117.402 198.988 117.269 197.965 117.13 196.876L116.871 195.276C116.798 194.745 116.652 194.193 116.539 193.642C116.26 192.367 115.914 191.099 115.536 189.818C116.426 189.731 119.6 189.353 120.961 188.576C122.322 187.799 123.816 186.431 124.022 184.791C124.084 184.408 124.065 184.015 123.965 183.64C123.865 183.264 123.687 182.914 123.443 182.612C123.198 182.31 122.893 182.063 122.546 181.887C122.2 181.711 121.82 181.61 121.432 181.591C119.095 181.531 116.605 184.911 115.921 186.903C115.875 187.022 115.543 188.496 115.37 189.306C115.138 188.543 114.912 187.779 114.653 187.009C113.896 184.798 113.066 182.587 112.243 180.369L111.506 178.337C111.824 178.304 115.609 177.945 117.13 177.069C118.458 176.292 119.985 174.924 120.191 173.291C120.253 172.907 120.233 172.514 120.133 172.138C120.034 171.763 119.856 171.412 119.612 171.109C119.367 170.807 119.062 170.559 118.716 170.382C118.369 170.206 117.989 170.104 117.601 170.084C115.264 170.031 112.774 173.404 112.09 175.396C112.037 175.548 111.559 177.66 111.459 178.204C110.921 176.71 110.397 175.216 109.945 173.722C109.315 171.71 108.818 169.658 108.458 167.58C108.604 167.58 112.555 167.209 114.115 166.312C115.443 165.535 116.97 164.167 117.176 162.527C117.237 162.144 117.217 161.752 117.117 161.377C117.016 161.002 116.838 160.652 116.594 160.35C116.35 160.048 116.045 159.801 115.699 159.625C115.353 159.449 114.974 159.347 114.586 159.327C112.249 159.267 109.759 162.647 109.075 164.639C109.029 164.772 108.664 166.379 108.504 167.149H108.371C108.067 165.047 107.949 162.923 108.02 160.801C108.02 159.632 108.132 158.517 108.239 157.434C108.982 157.434 112.375 157.434 113.863 156.77C115.35 156.106 116.944 154.958 117.329 153.351C117.433 152.976 117.456 152.584 117.398 152.2C117.34 151.815 117.202 151.447 116.992 151.12C116.782 150.793 116.505 150.514 116.18 150.301C115.855 150.088 115.488 149.946 115.104 149.885C112.787 149.566 109.938 152.68 109.042 154.533C108.989 154.639 108.61 155.735 108.338 156.525C108.398 156.033 108.451 155.529 108.511 155.064C108.75 153.311 109.075 151.744 109.374 150.316C109.553 149.52 109.726 148.802 109.899 148.132C110.629 147.76 113.564 146.226 114.547 144.978C115.529 143.729 116.439 141.95 116.041 140.33C115.823 139.668 115.364 139.112 114.755 138.773C114.145 138.435 113.431 138.339 112.754 138.504V138.504Z" fill="white"/>
<path d="M70.4836 174.546C72.3096 174.473 75.9616 172.6 75.9683 172.6C75.9749 172.6 73.9763 170.568 73.8568 170.455C72.2233 169.127 68.3057 167.6 66.3602 168.888C66.0419 169.112 65.7742 169.4 65.5748 169.733C65.3753 170.067 65.2486 170.439 65.2028 170.825C65.1571 171.211 65.1934 171.603 65.3093 171.974C65.4252 172.345 65.6181 172.687 65.8755 172.979C66.9246 174.26 68.9232 174.632 70.4836 174.546Z" fill="white"/>
</g>
<path d="M92.8007 224.691C92.8007 224.691 103.889 197.965 110.098 199.127C116.306 200.289 99.4739 241.736 99.4739 241.736C99.4739 241.736 118.982 204.937 132.289 204.937C145.595 204.937 127.408 245.607 110.563 259.166C110.563 259.166 137.163 230.501 152.68 236.703C168.198 242.905 121.645 271.948 121.645 271.948C121.645 271.948 148.69 263.429 145.589 270.016C142.488 276.603 134.062 277.758 134.062 277.758L164.652 279.312H58.2195L82.1634 276.988C82.1634 276.988 57.3298 264.591 63.9831 259.558C70.6363 254.525 85.2643 265.368 85.2643 265.368C85.2643 265.368 59.9924 237.48 64.8662 227.015C69.7399 216.55 91.4727 245.999 91.4727 245.999C91.4727 245.999 73.7372 208.423 77.283 201.856C80.8287 195.289 92.8007 224.691 92.8007 224.691Z" fill="#8D83FF"/>
<path opacity="0.5" d="M92.8007 224.691C92.8007 224.691 103.889 197.965 110.098 199.127C116.306 200.289 99.4739 241.736 99.4739 241.736C99.4739 241.736 118.982 204.937 132.289 204.937C145.595 204.937 127.408 245.607 110.563 259.166C110.563 259.166 137.163 230.501 152.68 236.703C168.198 242.905 121.645 271.948 121.645 271.948C121.645 271.948 148.69 263.429 145.589 270.016C142.488 276.603 134.062 277.758 134.062 277.758L164.652 279.312H58.2195L82.1634 276.988C82.1634 276.988 57.3298 264.591 63.9831 259.558C70.6363 254.525 85.2643 265.368 85.2643 265.368C85.2643 265.368 59.9924 237.48 64.8662 227.015C69.7399 216.55 91.4727 245.999 91.4727 245.999C91.4727 245.999 73.7372 208.423 77.283 201.856C80.8287 195.289 92.8007 224.691 92.8007 224.691Z" fill="white"/>
<path d="M89.2549 226.099C99.0091 254.923 99.0091 275.321 99.0091 275.321C99.0091 275.321 87.4821 275.759 75.5101 266.895" stroke="#263238" stroke-linecap="round" stroke-linejoin="round"/>
<path d="M94.1353 241.623C96.1405 233.005 98.8043 224.554 102.103 216.344" stroke="#263238" stroke-linecap="round" stroke-linejoin="round"/>
<path d="M122.953 224.771L98.126 261.576C98.126 261.576 81.2737 247.387 75.5101 239.405" stroke="#263238" stroke-linecap="round" stroke-linejoin="round"/>
<path d="M98.5708 270.441C98.5708 270.441 124.726 258.024 135.37 250.932" stroke="#263238" stroke-linecap="round" stroke-linejoin="round"/>
<path d="M235.846 224.691C235.846 224.691 224.764 197.965 218.582 199.127C212.4 200.289 229.206 241.736 229.206 241.736C229.206 241.736 209.698 204.937 196.398 204.937C183.098 204.937 201.272 245.607 218.124 259.166C218.124 259.166 191.518 230.501 176 236.703C160.482 242.905 207.042 271.948 207.042 271.948C207.042 271.948 179.991 263.429 183.098 270.016C186.206 276.603 194.625 277.758 194.625 277.758L164.008 279.312H270.434L246.49 276.988C246.49 276.988 271.317 264.591 264.67 259.558C258.024 254.525 243.383 265.368 243.383 265.368C243.383 265.368 268.661 237.48 263.781 227.015C258.9 216.55 237.174 245.999 237.174 245.999C237.174 245.999 254.916 208.423 251.364 201.836C247.811 195.249 235.846 224.691 235.846 224.691Z" fill="#8D83FF"/>
<path opacity="0.5" d="M235.846 224.691C235.846 224.691 224.764 197.965 218.582 199.127C212.4 200.289 229.206 241.736 229.206 241.736C229.206 241.736 209.698 204.937 196.398 204.937C183.098 204.937 201.272 245.607 218.124 259.166C218.124 259.166 191.518 230.501 176 236.703C160.482 242.905 207.042 271.948 207.042 271.948C207.042 271.948 179.991 263.429 183.098 270.016C186.206 276.603 194.625 277.758 194.625 277.758L164.008 279.312H270.434L246.49 276.988C246.49 276.988 271.317 264.591 264.67 259.558C258.024 254.525 243.383 265.368 243.383 265.368C243.383 265.368 268.661 237.48 263.781 227.015C258.9 216.55 237.174 245.999 237.174 245.999C237.174 245.999 254.916 208.423 251.364 201.836C247.811 195.249 235.846 224.691 235.846 224.691Z" fill="white"/>
<path d="M239.392 226.099C229.638 254.923 229.638 275.321 229.638 275.321C229.638 275.321 241.165 275.759 253.137 266.895" stroke="#263238" stroke-linecap="round" stroke-linejoin="round"/>
<path d="M234.518 241.623C232.513 233.005 229.849 224.554 226.55 216.344" stroke="#263238" stroke-linecap="round" stroke-linejoin="round"/>
<path d="M205.694 224.771L230.528 261.576C230.528 261.576 247.373 247.387 253.137 239.405" stroke="#263238" stroke-linecap="round" stroke-linejoin="round"/>
<path d="M230.083 270.441C230.083 270.441 203.921 258.024 193.277 250.932" stroke="#263238" stroke-linecap="round" stroke-linejoin="round"/>
<path d="M217.945 80.676H115.423C112.948 80.676 110.941 82.6827 110.941 85.158V277.114C110.941 279.589 112.948 281.596 115.423 281.596H217.945C220.42 281.596 222.427 279.589 222.427 277.114V85.158C222.427 82.6827 220.42 80.676 217.945 80.676Z" fill="#263238" stroke="#263238" stroke-miterlimit="10"/>
<path d="M174.393 92.6811H160.515C160.328 92.6811 160.142 92.6442 159.969 92.5724C159.796 92.5007 159.638 92.3955 159.506 92.263C159.373 92.1304 159.268 91.973 159.196 91.7998C159.125 91.6266 159.088 91.441 159.088 91.2535V91.2535C159.088 91.0663 159.125 90.881 159.197 90.7082C159.268 90.5353 159.374 90.3784 159.506 90.2464C159.639 90.1143 159.796 90.0098 159.97 89.9388C160.143 89.8678 160.328 89.8317 160.515 89.8325H174.393C174.77 89.8325 175.131 89.9822 175.398 90.2487C175.664 90.5152 175.814 90.8766 175.814 91.2535C175.815 91.4407 175.779 91.6262 175.708 91.7993C175.637 91.9725 175.532 92.1299 175.4 92.2626C175.268 92.3952 175.111 92.5005 174.938 92.5723C174.765 92.6441 174.58 92.6811 174.393 92.6811Z" fill="#8D83FF"/>
<path d="M215.382 263.641H117.986V92.8472H141.073L143.67 94.9985C144.575 95.7551 145.717 96.1689 146.897 96.1672H187.627C188.849 96.1604 190.028 95.7124 190.947 94.9056L193.29 92.8472H215.362L215.382 263.641Z" fill="white" stroke="#263238" stroke-width="0.938618" stroke-linecap="round" stroke-linejoin="round"/>
<path d="M156.883 105.437L155.555 100.974H122.408V105.437V254.571V259.04H211.258V105.437H156.883Z" fill="#8D83FF"/>
<path d="M208.131 113.478H125.529V254.126H208.131V113.478Z" fill="white"/>
<path d="M169.798 268.92C169.799 268.481 169.67 268.052 169.428 267.686C169.185 267.32 168.839 267.035 168.434 266.866C168.029 266.697 167.582 266.653 167.152 266.737C166.721 266.822 166.325 267.033 166.015 267.343C165.704 267.653 165.492 268.048 165.406 268.478C165.32 268.909 165.363 269.355 165.531 269.76C165.698 270.166 165.983 270.513 166.348 270.757C166.712 271.001 167.141 271.131 167.58 271.131C168.167 271.129 168.729 270.896 169.144 270.482C169.56 270.068 169.795 269.506 169.798 268.92V268.92Z" fill="#8D83FF"/>
<path d="M164.5 247C180.792 247 194 228.196 194 205C194 181.804 180.792 163 164.5 163C148.208 163 135 181.804 135 205C135 228.196 148.208 247 164.5 247Z" fill="#8D83FF"/>
<path opacity="0.5" d="M164.5 247C180.792 247 194 228.196 194 205C194 181.804 180.792 163 164.5 163C148.208 163 135 181.804 135 205C135 228.196 148.208 247 164.5 247Z" fill="white"/>
<path d="M169.032 158.227C169.032 158.227 167.163 155.152 165.447 155.001C163.732 154.85 143.307 167.464 140.183 174.03C137.059 180.595 134.102 193.769 142.373 206.448C150.439 218.782 163.082 218.372 169.637 217.754C176.193 217.137 180.587 215.039 187.23 209.795C193.873 204.551 199.968 196.829 200.851 191.586C201.734 186.342 198.486 183.426 196.413 182.7C194.34 181.974 182.346 182.118 173.608 173.362C164.871 164.605 169.032 158.227 169.032 158.227Z" fill="#263238" stroke="#263238" stroke-linecap="round" stroke-linejoin="round"/>
<path d="M171.764 154C171.764 154 166.567 155.999 163.353 159.53C160.139 163.06 158.156 168.597 158.006 176.737C157.856 184.876 160.454 194.087 170.54 198.085C180.625 202.083 189.652 199.006 192.558 196.237C195.464 193.469 199 185.646 199 185.646C199 185.646 182.952 189.96 175.307 180.878C167.662 171.797 171.764 154 171.764 154Z" fill="white" stroke="#263238" stroke-linecap="round" stroke-linejoin="round"/>
<path d="M262.381 159.541C258.416 153.601 248.952 151.844 241.471 149.423C233.989 147.002 229.583 142.196 231.565 130.3C233.548 118.404 243.866 99.0785 243.67 95.5588C243.475 92.0392 208.014 92.2632 204.707 93.3907C201.401 94.5181 200.75 94.2652 197.667 98.2257C195.959 100.365 194.414 102.628 193.044 104.998L196.864 96.9754H197.146C197.561 95.921 198.151 94.9438 198.89 94.0845C202.252 90.1888 204.157 85.2489 204.28 80.107C204.425 72.5401 199.035 73.2701 198.015 75.5973C196.994 77.9244 191.025 85.9322 189.274 88.1148C187.523 90.2974 183.884 96.2671 183.884 96.2671L179.839 110.273C179.839 110.273 178.956 114.451 173.892 130.286C168.827 146.121 171.034 153.42 171.034 153.42C171.034 153.42 169.709 152.762 166.627 162.216C163.545 171.669 164.869 183.76 170.368 189.477C175.867 195.193 183.138 194.977 191.286 191.681C196.297 189.536 200.471 185.816 203.173 181.086C203.173 181.086 211.762 178.918 218.144 174.054C224.525 169.19 229.366 164.16 238.627 164.601C247.889 165.041 258.438 170.317 261.962 170.093C265.485 169.869 266.346 165.475 262.381 159.541Z" fill="white"/>
<mask id="mask0_57_220" style="mask-type:alpha" maskUnits="userSpaceOnUse" x="165" y="74" width="100" height="121">
<path d="M262.259 159.571C258.299 153.631 248.848 151.875 241.377 149.455C233.905 147.034 229.505 142.229 231.485 130.336C233.465 118.443 243.768 99.1217 243.573 95.6028C243.378 92.084 207.966 92.308 204.664 93.4352C201.362 94.5623 200.711 94.3095 197.633 98.2691C195.927 100.407 194.384 102.671 193.016 105.039L196.831 97.019H197.113C197.527 95.9649 198.116 94.9879 198.854 94.1288C202.212 90.234 204.114 85.2952 204.237 80.1546C204.382 72.5894 198.999 73.3192 197.98 75.6458C196.961 77.9725 191 85.9784 189.252 88.1605C187.503 90.3426 183.868 96.3109 183.868 96.3109L179.829 110.314C179.829 110.314 178.948 114.49 173.89 130.322C168.832 146.153 171.036 153.451 171.036 153.451C171.036 153.451 169.714 152.793 166.636 162.244C163.557 171.695 164.88 183.784 170.371 189.499C175.863 195.214 183.124 194.998 191.26 191.703C196.265 189.558 200.433 185.839 203.132 181.11C203.132 181.11 211.709 178.942 218.082 174.08C224.454 169.217 229.288 164.188 238.537 164.629C247.786 165.069 258.321 170.344 261.84 170.12C265.358 169.896 266.218 165.503 262.259 159.571Z" fill="white"/>
</mask>
<g mask="url(#mask0_57_220)">
<path d="M205.56 139C181.101 142.648 173.413 148.487 175.855 156.522C176.362 158.115 177.185 159.589 178.276 160.857C178.276 161.009 178.276 161.175 178.319 161.348C178.319 161.348 178.753 161.608 179.403 162.071C180.259 162.898 181.185 163.65 182.17 164.318C183.775 165.843 185.212 167.75 184.916 169.52C184.288 173.292 175.523 179.882 171.094 180.2C166.664 180.518 165.125 176.117 164.497 180.828C163.868 185.539 173.608 197.158 183.03 195.901C192.452 194.644 200.307 181.45 200.307 181.45C200.307 181.45 199.049 179.282 205.364 172.656C209.512 168.321 215.444 166.406 219.989 164.629C224.28 163.367 228.462 161.762 232.496 159.831C243.674 154.354 256.955 158.01 256.955 158.01C256.955 158.01 230.018 135.307 205.56 139Z" fill="#8D83FF"/>
<path opacity="0.5" d="M205.56 139C181.101 142.648 173.413 148.487 175.855 156.522C176.362 158.115 177.185 159.589 178.276 160.857C178.276 161.009 178.276 161.175 178.319 161.348C178.319 161.348 178.753 161.608 179.403 162.071C180.259 162.898 181.185 163.65 182.17 164.318C183.775 165.843 185.212 167.75 184.916 169.52C184.288 173.292 175.523 179.882 171.094 180.2C166.664 180.518 165.125 176.117 164.497 180.828C163.868 185.539 173.608 197.158 183.03 195.901C192.452 194.644 200.307 181.45 200.307 181.45C200.307 181.45 199.049 179.282 205.364 172.656C209.512 168.321 215.444 166.406 219.989 164.629C224.28 163.367 228.462 161.762 232.496 159.831C243.674 154.354 256.955 158.01 256.955 158.01C256.955 158.01 230.018 135.307 205.56 139Z" fill="white"/>
</g>
<path d="M262.381 159.541C258.416 153.601 248.952 151.844 241.471 149.423C233.989 147.002 229.583 142.196 231.565 130.3C233.548 118.404 243.866 99.0785 243.67 95.5588C243.475 92.0392 208.014 92.2632 204.707 93.3907C201.401 94.5181 200.75 94.2652 197.667 98.2257C195.959 100.365 194.414 102.628 193.044 104.998L196.864 96.9754H197.146C197.561 95.921 198.151 94.9438 198.89 94.0845C202.252 90.1888 204.157 85.2489 204.28 80.107C204.425 72.5401 199.035 73.2701 198.015 75.5973C196.994 77.9244 191.025 85.9322 189.274 88.1148C187.523 90.2974 183.884 96.2671 183.884 96.2671L179.839 110.273C179.839 110.273 178.956 114.451 173.892 130.286C168.827 146.121 171.034 153.42 171.034 153.42C171.034 153.42 169.709 152.762 166.627 162.216C163.545 171.669 164.869 183.76 170.368 189.477C175.867 195.193 183.138 194.977 191.286 191.681C196.297 189.536 200.471 185.816 203.173 181.086C203.173 181.086 211.762 178.918 218.144 174.054C224.525 169.19 229.366 164.16 238.627 164.601C247.889 165.041 258.438 170.317 261.962 170.093C265.485 169.869 266.346 165.475 262.381 159.541Z" stroke="#263238" stroke-linecap="round" stroke-linejoin="round"/>
<path d="M261.99 170C261.99 170 262.445 168.021 257.285 165.361C252.125 162.701 250 164.534 250 165.856C250 167.178 261.194 170 261.99 170Z" fill="white" stroke="#263238" stroke-linecap="round" stroke-linejoin="round"/>
<path d="M212.421 85.3028L199 96H217C217 96 217 82.8599 212.421 85.3028Z" fill="white" stroke="#263238" stroke-linecap="round" stroke-linejoin="round"/>
<path d="M196 159C197.921 156.815 200.316 155.104 203 154" stroke="#263238" stroke-linecap="round" stroke-linejoin="round"/>
<path d="M194 163C194 162.302 194 161.632 194 161" stroke="#263238" stroke-linecap="round" stroke-linejoin="round"/>
<path d="M188 177C187.285 176.382 186.616 175.714 186 175" stroke="#263238" stroke-linecap="round" stroke-linejoin="round"/>
<path d="M203 180.902C198.84 181.268 194.638 180.602 191 179" stroke="#263238" stroke-linecap="round" stroke-linejoin="round"/>
<path d="M244.667 96H183.333C174.863 96 168 103.88 168 113.564V148.292C168 156.738 173.189 163.795 180.111 165.496L176.876 177L191.85 165.919H244.667C253.131 165.919 260 158.039 260 148.355V113.627C260 103.88 253.131 96 244.667 96Z" fill="#8D83FF" stroke="#263238" stroke-width="2" stroke-miterlimit="10"/>
<path d="M232.604 89.8922C232.604 89.8922 232.913 95.5861 238.385 98.2951C243.857 101.004 250.845 100.417 250.996 97.0149C251.147 93.6127 246.89 90.0336 244.007 85.4714C241.124 80.9092 234.732 83.4839 232 86.6173" fill="white"/>
<path d="M232.604 89.8922C232.604 89.8922 232.913 95.5861 238.385 98.2951C243.857 101.004 250.845 100.417 250.996 97.0149C251.147 93.6127 246.89 90.0336 244.007 85.4714C241.124 80.9092 234.732 83.4839 232 86.6173" stroke="#263238" stroke-linecap="round" stroke-linejoin="round"/>
<path d="M242.077 94.577C241.619 96.7839 243.286 98.0038 244.795 98.6892C246.304 99.3746 249.299 98.9702 250.996 97.0375C251.071 95.42 250.103 93.7751 248.744 92C246.852 92.2193 242.43 92.8499 242.077 94.577Z" fill="white" stroke="#263238" stroke-linecap="round" stroke-linejoin="round"/>
<path d="M222.579 89.8922C222.579 89.8922 222.865 95.5861 228.046 98.2951C233.228 101.004 239.853 100.417 239.996 97.0149C240.139 93.6127 236.108 90.0336 233.371 85.4714C230.634 80.9092 224.594 83.4839 222 86.6173" fill="white"/>
<path d="M222.579 89.8922C222.579 89.8922 222.865 95.5861 228.046 98.2951C233.228 101.004 239.853 100.417 239.996 97.0149C240.139 93.6127 236.108 90.0336 233.371 85.4714C230.634 80.9092 224.594 83.4839 222 86.6173" stroke="#263238" stroke-linecap="round" stroke-linejoin="round"/>
<path d="M231.077 94.577C230.619 96.7839 232.286 98.0038 233.795 98.6892C235.304 99.3746 238.3 98.9702 239.997 97.0375C240.064 95.42 239.096 93.7751 237.744 92C235.852 92.2193 231.43 92.8499 231.077 94.577Z" fill="white" stroke="#263238" stroke-linecap="round" stroke-linejoin="round"/>
<path d="M211.611 89.8922C211.611 89.8922 211.913 95.5861 217.385 98.2951C222.857 101.004 229.845 100.417 229.996 97.0149C230.147 93.6127 225.898 90.0336 223.007 85.4714C220.117 80.9092 213.732 83.4839 211 86.6173" fill="white"/>
<path d="M211.611 89.8922C211.611 89.8922 211.913 95.5861 217.385 98.2951C222.857 101.004 229.845 100.417 229.996 97.0149C230.147 93.6127 225.898 90.0336 223.007 85.4714C220.117 80.9092 213.732 83.4839 211 86.6173" stroke="#263238" stroke-linecap="round" stroke-linejoin="round"/>
<path d="M221.075 94.577C220.625 96.7839 222.284 98.0038 223.801 98.6892C225.318 99.3746 228.306 98.9702 229.996 97.0375C230.071 95.42 229.102 93.7751 227.743 92C225.851 92.2193 221.428 92.8499 221.075 94.577Z" fill="white" stroke="#263238" stroke-linecap="round" stroke-linejoin="round"/>
<path d="M171 153C171 153 171.379 161.967 176 168" stroke="#263238" stroke-linecap="round" stroke-linejoin="round"/>
<path d="M157 190.5C157 192.434 155.656 194 154 194C152.344 194 151 192.465 151 190.5C151 188.535 152.344 187 154 187C155.656 187 157 188.566 157 190.5Z" fill="white"/>
<path d="M150 195.003C150 196.659 148.88 198 147.5 198C146.12 198 145 196.686 145 195.003C145 193.321 146.12 192 147.5 192C148.88 192 150 193.347 150 195.003Z" stroke="#263238" stroke-linecap="round" stroke-linejoin="round"/>
<g clip-path="url(#clip0_57_220)">
<path d="M232.062 139.125C226.573 139.125 222.125 143.575 222.125 149.062C222.125 154.55 226.573 159 232.062 159C237.548 159 242 154.55 242 149.062C242 143.575 237.548 139.125 232.062 139.125ZM231.027 153.444L227.299 149.829L228.834 148.29L231.025 150.365L235.695 145.576L237.234 147.113L231.027 153.444V153.444ZM219.917 119.25H222.125V106H215.5V108.208H208.875V110.417H215.5V112.625H219.917V119.25ZM217.708 110.417V108.208H219.917V110.417H217.708ZM215.5 119.25H213.292V114.833H208.875V112.625H215.5V114.833H217.708V117.042H215.5V119.25ZM202.25 119.25H193.417V110.417H202.25V119.25ZM239.792 130.292H237.583V125.875H235.375V132.873C234.604 132.714 233.814 132.624 233.01 132.577L233.167 132.5V130.292H230.958V128.083H226.542V125.875H224.333V128.083H222.125V125.875H219.917V128.083H217.708V125.875H215.5V128.083H213.292V130.292H211.083V128.083H213.292V125.875H204.458V128.083H208.875V130.292H204.458V132.5H206.667V136.917H208.875V134.708H213.292V139.125H215.5V130.292H217.708V134.708H223.825C221.114 136.267 218.885 138.564 217.421 141.333H213.292V143.542H216.463C215.968 144.94 215.657 146.419 215.551 147.958H213.292V143.542H211.083V145.75H208.875V159H221.727C219.245 156.418 217.708 152.92 217.708 149.062C217.708 141.183 224.141 134.708 232.062 134.708C235.689 134.708 239.187 136.077 241.903 138.644L242 138.73V134.708H240.231L239.792 134.43V132.5H242V128.083H239.792V130.292V130.292ZM222.125 132.5H219.917V130.292H222.125V132.5ZM215.5 156.792H211.083V154.583H213.292V152.375H211.083V150.167H215.568C215.727 152.547 216.366 154.793 217.43 156.792H215.5V156.792ZM228.75 132.5H226.542V130.292H228.75V132.5ZM211.083 121.458H208.875V119.25H213.292V123.667H211.083V121.458ZM237.583 119.25H228.75V110.417H237.583V119.25ZM217.708 119.25H219.917V121.458H217.708V119.25ZM224.333 106V123.667H242V106H224.333ZM239.792 121.458H226.542V108.208H239.792V121.458ZM215.5 121.458H217.708V123.667H215.5V121.458ZM219.917 123.667V121.458H222.125V123.667H219.917ZM211.083 139.125V143.542H208.875V139.125H211.083ZM204.458 128.083V130.292H202.25V128.083H204.458ZM233.167 128.083H230.958V125.875H233.167V128.083ZM202.25 125.875V128.083H197.833V130.292H200.042V132.5H193.417V130.292H195.625V128.083H191.208V130.292H189V125.875H202.25ZM189 159H206.667V141.333H189V159ZM191.208 143.542H204.458V156.792H191.208V143.542ZM204.458 136.917H206.667V139.125H204.458V136.917ZM193.417 145.75H202.25V154.583H193.417V145.75ZM200.042 134.708V132.5H202.25V139.125H200.042V136.917H197.833V139.125H195.625V136.917H193.417V139.125H189V136.917H191.208V134.708H200.042ZM191.208 132.5V134.708H189V132.5H191.208ZM206.667 106H189V123.667H206.667V106ZM204.458 121.458H191.208V108.208H204.458V121.458Z" fill="#1E1E1E"/>
</g>
<defs>
<clipPath id="clip0_57_220">
<rect width="53" height="53" fill="white" transform="translate(189 106)"/>
</clipPath>
</defs>
</svg>
